<svg width="656" height="411" viewBox="0 0 656 411" fill="none" xmlns="http://www.w3.org/2000/svg">
<g clip-path="url(#clip0)">
<path d="M533.252 46.546L539.74 122.276L506.707 129.89L500.235 54.1745L533.252 46.546Z" fill="#D8314E"/>
<path d="M506.707 129.89L470.448 114.103L463.961 38.3885L500.235 54.1745L506.707 129.89Z" fill="#7E1D2D"/>
<path d="M500.235 54.1745L463.961 38.3885L496.993 30.7587L533.252 46.546L500.235 54.1745Z" fill="#AF283F"/>
<path d="M436.449 66.2534L481.665 135.262L407.723 152.311L436.449 66.2534Z" fill="#D8314E"/>
<path d="M407.723 152.311L371.464 136.524L400.19 50.466L436.449 66.2534L407.723 152.311Z" fill="#8E2033"/>
<path d="M365.837 163.866L329.577 148.078C329.684 147.901 329.79 147.708 329.912 147.529L366.171 163.316C366.049 163.495 365.944 163.688 365.837 163.866Z" fill="#8F2034"/>
<path d="M366.156 163.318L329.897 147.53C330.19 147.031 330.468 146.532 330.729 146.02L366.988 161.808C366.727 162.32 366.449 162.818 366.156 163.318Z" fill="#8A1F32"/>
<path d="M365.837 163.866L329.578 148.078L305.963 132.331L342.236 148.102L365.837 163.866Z" fill="#7C1C2D"/>
<path d="M327.41 180.331L291.151 164.544C288.876 163.55 286.72 162.179 284.746 160.425L321.005 176.213C322.966 177.983 325.12 179.339 327.41 180.331Z" fill="#801D2E"/>
<path d="M321.006 176.228L284.732 160.442L305.963 132.331L342.236 148.102L321.006 176.228Z" fill="#9F2439"/>
<path d="M342.236 148.102L365.837 163.866C366.252 163.187 366.635 162.496 366.988 161.808C365.87 164.077 364.531 166.258 362.953 168.338C357.604 175.426 350.563 179.957 343.362 181.611C335.397 183.455 327.246 181.783 320.99 176.214L342.236 148.102Z" fill="#D8314E"/>
<path d="M337.79 115.48L301.531 99.6925C305.057 98.8796 308.672 98.7467 312.182 99.3265L348.441 115.114C344.931 114.534 341.316 114.667 337.79 115.48Z" fill="#A3253B"/>
<path d="M348.442 115.129L312.183 99.3417C313.891 99.6204 315.569 100.085 317.201 100.722L353.46 116.51C351.828 115.873 350.15 115.408 348.442 115.129Z" fill="#9E2439"/>
<path d="M353.474 116.493L317.215 100.706C317.547 100.83 317.865 100.97 318.184 101.11L354.443 116.898C354.109 116.759 353.792 116.633 353.474 116.493Z" fill="#992337"/>
<path d="M316.931 131.219L280.672 115.431C281.285 114.399 281.95 113.424 282.632 112.477L318.891 128.265C318.208 129.196 317.544 130.187 316.931 131.219Z" fill="#8F2034"/>
<path d="M318.891 128.265L282.632 112.477C282.796 112.249 282.961 112.036 283.14 111.806C283.827 110.92 284.534 110.078 285.291 109.278L321.55 125.066C320.809 125.864 320.086 126.707 319.399 127.593C319.235 127.822 319.07 128.035 318.891 128.265Z" fill="#942235"/>
<path d="M321.551 125.081L285.292 109.293C286.328 108.194 287.402 107.167 288.53 106.243L324.789 122.03C323.661 122.954 322.572 123.982 321.551 125.081Z" fill="#992337"/>
<path d="M324.787 122.015L288.528 106.228C289.956 105.048 291.455 103.999 293.014 103.098L329.273 118.886C327.715 119.786 326.215 120.835 324.787 122.015Z" fill="#9E2439"/>
<path d="M329.273 118.886L293.014 103.098C295.737 101.514 298.607 100.377 301.531 99.6925L337.79 115.48C334.866 116.164 331.981 117.303 329.273 118.886Z" fill="#A3253B"/>
<path d="M337.79 115.48C344.841 113.854 352.219 114.921 358.493 119.112C371.414 127.736 374.981 146.461 366.988 161.808C366.62 162.497 366.237 163.188 365.837 163.866L342.236 148.102L316.929 131.204C317.69 129.929 318.518 128.725 319.397 127.578C324.337 121.244 330.906 117.076 337.79 115.48Z" fill="#D8314E"/>
<path d="M342.236 148.102L305.963 132.331L280.672 115.431L316.931 131.219L342.236 148.102Z" fill="#7C1C2D"/>
<path d="M334.186 70.6132L297.927 54.8258C301.378 54.0346 304.871 53.8973 308.226 54.46L344.485 70.2474C341.13 69.6847 337.637 69.822 334.186 70.6132Z" fill="#A3253B"/>
<path d="M344.485 70.2474L308.226 54.46C309.826 54.7328 311.394 55.1614 312.914 55.747L349.173 71.5344C347.651 70.9336 346.084 70.505 344.485 70.2474Z" fill="#9E2439"/>
<path d="M349.172 71.5192L312.913 55.7318C313.213 55.8431 313.515 55.9696 313.817 56.0961L350.076 71.8835C349.776 71.7722 349.474 71.6457 349.172 71.5192Z" fill="#992337"/>
<path d="M334.187 70.6132C341.598 68.9098 349.182 70.234 355.292 75.005L319.414 127.592C318.534 128.724 317.705 129.928 316.945 131.202C304.475 121.437 302.941 100.93 313.536 85.4164C318.933 77.4827 326.445 72.3914 334.187 70.6132Z" fill="#D8314E"/>
<path d="M316.931 131.219L280.672 115.431C271.307 108.101 268.115 94.7111 271.588 81.9306L307.848 97.718C304.374 110.498 307.565 123.873 316.931 131.219Z" fill="#801D2E"/>
<path d="M307.846 97.7028L271.587 81.9154C272.072 80.1146 272.711 78.3157 273.458 76.5378L309.717 92.3252C308.955 94.1044 308.331 95.902 307.846 97.7028Z" fill="#851E30"/>
<path d="M309.718 92.3404L273.459 76.553C274.097 75.0906 274.811 73.6367 275.637 72.2342L311.896 88.0215C311.07 89.424 310.354 90.8628 309.718 92.3404Z" fill="#8A1F32"/>
<path d="M311.895 88.0064L275.636 72.219C276.141 71.3491 276.692 70.4752 277.261 69.6304C277.56 69.1915 277.859 68.7677 278.174 68.3426L314.433 84.13C314.118 84.5551 313.819 84.9788 313.52 85.4178C312.936 86.2639 312.401 87.1365 311.895 88.0064Z" fill="#8F2034"/>
<path d="M314.434 84.1452L278.175 68.3578C279.092 67.1156 280.047 65.9617 281.07 64.8784L317.329 80.6658C316.306 81.7491 315.336 82.9043 314.434 84.1452Z" fill="#942235"/>
<path d="M317.313 80.6671L281.054 64.8797C282.16 63.6974 283.319 62.6021 284.518 61.6104L320.777 77.3978C319.593 78.3882 318.419 79.4848 317.313 80.6671Z" fill="#992337"/>
<path d="M320.791 77.3813L284.532 61.5939C286.045 60.3454 287.632 59.2433 289.247 58.2916L325.506 74.0789C323.891 75.0307 322.304 76.1328 320.791 77.3813Z" fill="#9E2439"/>
<path d="M325.506 74.0789L289.247 58.2916C292.044 56.6708 294.956 55.4986 297.912 54.8271L334.171 70.6145C331.232 71.2998 328.303 72.4582 325.506 74.0789Z" fill="#A3253B"/>
<path d="M279.3 184.066L243.041 168.279C243.146 168.086 243.268 167.907 243.374 167.714L279.633 183.502C279.527 183.694 279.405 183.873 279.3 184.066Z" fill="#8F2034"/>
<path d="M279.633 183.502L243.374 167.714C243.786 167.006 244.169 166.299 244.519 165.581L280.778 181.368C280.428 182.087 280.03 182.794 279.633 183.502Z" fill="#8A1F32"/>
<path d="M279.3 184.066L243.041 168.279L219.44 152.515L255.714 168.301L279.3 184.066Z" fill="#7C1C2D"/>
<path d="M240.858 200.533L204.599 184.745C202.324 183.752 200.17 182.396 198.21 180.641L234.469 196.428C236.429 198.183 238.583 199.539 240.858 200.533Z" fill="#801D2E"/>
<path d="M234.469 196.428L198.195 180.642L219.44 152.515L255.714 168.301L234.469 196.428Z" fill="#9F2439"/>
<path d="M255.714 168.301L279.3 184.066C279.834 183.178 280.322 182.279 280.778 181.368C279.603 183.856 278.162 186.276 276.433 188.552C271.069 195.642 264.026 200.157 256.826 201.827C248.861 203.67 240.711 201.998 234.454 196.43L255.714 168.301Z" fill="#D8314E"/>
<path d="M251.269 135.679L215.01 119.892C218.535 119.079 222.15 118.946 225.66 119.526L261.919 135.313C258.41 134.733 254.794 134.866 251.269 135.679Z" fill="#A3253B"/>
<path d="M261.92 135.328L225.661 119.541C227.369 119.82 229.047 120.284 230.679 120.921L266.938 136.709C265.306 136.072 263.628 135.607 261.92 135.328Z" fill="#9E2439"/>
<path d="M266.937 136.694L230.678 120.906C231.01 121.03 231.329 121.17 231.647 121.311L267.906 137.098C267.588 136.958 267.254 136.819 266.937 136.694Z" fill="#992337"/>
<path d="M230.408 151.403L194.149 135.616C194.762 134.583 195.412 133.609 196.109 132.661L232.368 148.449C231.686 149.395 231.023 150.386 230.408 151.403Z" fill="#8F2034"/>
<path d="M232.37 148.464L196.111 132.676C196.274 132.448 196.453 132.218 196.618 132.005C197.306 131.119 198.014 130.293 198.755 129.494L235.014 145.281C234.273 146.08 233.565 146.907 232.877 147.792C232.712 148.006 232.533 148.235 232.37 148.464Z" fill="#942235"/>
<path d="M235.014 145.281L198.755 129.494C199.776 128.396 200.865 127.368 201.993 126.443L238.252 142.231C237.124 143.155 236.049 144.166 235.014 145.281Z" fill="#992337"/>
<path d="M238.251 142.215L201.992 126.428C203.419 125.248 204.919 124.2 206.477 123.299L242.737 139.086C241.178 139.987 239.678 141.036 238.251 142.215Z" fill="#9E2439"/>
<path d="M242.736 139.086L206.477 123.299C209.201 121.715 212.07 120.577 215.01 119.892L251.269 135.679C248.329 136.364 245.46 137.502 242.736 139.086Z" fill="#A3253B"/>
<path d="M251.269 135.679C258.319 134.053 265.698 135.12 271.972 139.311C284.715 147.829 288.337 166.135 280.777 181.353C280.321 182.264 279.833 183.163 279.299 184.051L255.713 168.286L230.422 151.386C231.182 150.112 232.009 148.893 232.89 147.761C237.801 141.444 244.384 137.275 251.269 135.679Z" fill="#D8314E"/>
<path d="M255.714 168.301L219.44 152.515L194.149 135.616L230.408 151.403L255.714 168.301Z" fill="#7C1C2D"/>
<path d="M247.665 90.8124L211.406 75.025C214.856 74.2339 218.349 74.0965 221.704 74.6592L257.963 90.4466C254.592 89.87 251.099 90.0074 247.665 90.8124Z" fill="#A3253B"/>
<path d="M257.963 90.4466L221.704 74.6592C223.304 74.9321 224.872 75.3606 226.392 75.9462L262.652 91.7336C261.13 91.1328 259.547 90.7056 257.963 90.4466Z" fill="#9E2439"/>
<path d="M262.65 91.7184L226.391 75.9311C226.692 76.0424 226.993 76.1689 227.28 76.2967L263.539 92.0841C263.237 91.9576 262.952 91.8449 262.65 91.7184Z" fill="#992337"/>
<path d="M247.665 90.8124C255.076 89.109 262.66 90.4332 268.772 95.2194L232.892 147.791C232.012 148.923 231.184 150.127 230.408 151.403C217.938 141.638 216.39 121.147 226.984 105.618C232.396 97.6833 239.924 92.5906 247.665 90.8124Z" fill="#D8314E"/>
<path d="M230.408 151.403L194.149 135.616C184.784 128.285 181.577 114.897 185.05 102.116L221.309 117.903C217.836 130.684 221.028 144.074 230.408 151.403Z" fill="#801D2E"/>
<path d="M221.309 117.903L185.05 102.116C185.534 100.3 186.173 98.5011 186.921 96.7384L223.18 112.526C222.432 114.288 221.808 116.086 221.309 117.903Z" fill="#851E30"/>
<path d="M223.18 112.526L186.921 96.7384C187.559 95.276 188.273 93.8221 189.098 92.4044L225.357 108.192C224.547 109.608 223.816 111.048 223.18 112.526Z" fill="#8A1F32"/>
<path d="M225.357 108.192L189.098 92.4044C189.603 91.5345 190.14 90.6771 190.724 89.8309C191.009 89.4085 191.309 88.9848 191.609 88.5762L227.869 104.364C227.568 104.772 227.268 105.196 226.984 105.618C226.415 106.463 225.862 107.322 225.357 108.192Z" fill="#8F2034"/>
<path d="M227.869 104.364L191.609 88.5762C192.526 87.3339 193.496 86.1788 194.504 85.0968L230.763 100.884C229.755 101.966 228.785 103.121 227.869 104.364Z" fill="#942235"/>
<path d="M230.763 100.884L194.504 85.0968C195.609 83.9145 196.768 82.8192 197.981 81.811L234.24 97.5984C233.041 98.5901 231.882 99.6853 230.763 100.884Z" fill="#992337"/>
<path d="M234.255 97.5971L197.996 81.8097C199.509 80.5611 201.095 79.4438 202.727 78.506L238.986 94.2934C237.354 95.2312 235.767 96.3333 234.255 97.5971Z" fill="#9E2439"/>
<path d="M238.985 94.2782L202.725 78.4908C205.522 76.87 208.45 75.6965 211.404 75.0099L247.663 90.7972C244.695 91.5004 241.766 92.6587 238.985 94.2782Z" fill="#A3253B"/>
<path d="M196.859 172.365C198.194 187.982 187.359 203.379 172.643 206.776C157.927 210.174 144.925 200.272 143.589 184.655L196.859 172.365Z" fill="#D8314E"/>
<path d="M157.738 205.557L121.479 189.77C113.762 186.408 108.199 178.792 107.345 168.866L143.605 184.654C144.442 194.58 150.006 202.197 157.738 205.557Z" fill="#801D2E"/>
<path d="M143.605 184.654L107.33 168.868L160.6 156.578L196.859 172.365L143.605 184.654Z" fill="#AF283F"/>
<path d="M89.1116 188.03L52.8525 172.243C54.7478 172.214 56.612 172.357 58.4123 172.643L94.6714 188.43C92.8711 188.144 91.0069 188.002 89.1116 188.03Z" fill="#A3253B"/>
<path d="M94.6728 188.446L58.4137 172.658C60.4167 172.988 62.3611 173.521 64.215 174.245L100.474 190.033C98.6202 189.308 96.6758 188.775 94.6728 188.446Z" fill="#9E2439"/>
<path d="M100.458 190.019L64.1985 174.231C64.5624 174.368 64.9277 174.519 65.2942 174.686L101.553 190.473C101.203 190.321 100.838 190.169 100.458 190.019Z" fill="#992337"/>
<path d="M75.3266 191.224L39.0675 175.436C41.3285 175.391 43.6456 175.112 45.9857 174.571C48.3562 174.027 50.6433 173.231 52.8373 172.244L89.0963 188.031C86.9037 189.034 84.6153 189.815 82.2448 190.359C79.9047 190.9 77.5876 191.179 75.3266 191.224Z" fill="#A3253B"/>
<path d="M75.3266 191.224L39.0675 175.436C41.3285 175.391 43.6456 175.112 45.9857 174.571C48.3562 174.027 50.6433 173.231 52.8373 172.244L89.0963 188.031C86.9037 189.034 84.6153 189.815 82.2448 190.359C79.9047 190.9 77.5876 191.179 75.3266 191.224Z" fill="#A3253B"/>
<path d="M89.1116 188.03C105.218 187.752 118.411 199.839 119.938 217.641L50.7372 233.603C49.2131 215.832 59.8278 198.268 75.3419 191.222C77.6029 191.177 79.92 190.898 82.2601 190.357C84.6306 189.813 86.919 189.032 89.1116 188.03Z" fill="#D8314E"/>
<path d="M50.7221 233.604L14.463 217.817C14.0534 212.96 14.5326 208.117 15.7826 203.512L52.0417 219.3C50.8069 223.903 50.3125 228.747 50.7221 233.604Z" fill="#801D2E"/>
<path d="M52.0568 219.298L15.7825 203.512C16.3251 201.493 17.0248 199.52 17.8376 197.614L54.0966 213.402C53.2839 215.307 52.5993 217.279 52.0568 219.298Z" fill="#851E30"/>
<path d="M54.1105 213.385L17.8514 197.598C18.55 195.962 19.3451 194.378 20.2365 192.848L56.4956 208.635C55.6055 210.181 54.8104 211.764 54.1105 213.385Z" fill="#8A1F32"/>
<path d="M56.497 208.65L20.2379 192.863C21.0752 191.414 21.9925 190.003 22.9923 188.662L59.2514 204.449C58.2516 205.791 57.333 207.186 56.497 208.65Z" fill="#8F2034"/>
<path d="M59.2515 204.449L22.9924 188.662C24.0061 187.304 25.0859 186.002 26.233 184.77L62.4921 200.557C61.3449 201.789 60.2638 203.076 59.2515 204.449Z" fill="#942235"/>
<path d="M62.492 200.557L26.2329 184.77C27.4785 183.438 28.8079 182.19 30.206 181.028L66.4651 196.815C65.0656 197.962 63.7375 199.225 62.492 200.557Z" fill="#992337"/>
<path d="M66.4651 196.815L30.206 181.028C31.9322 179.593 33.7642 178.316 35.6866 177.2L71.9457 192.987C70.0219 194.088 68.1761 195.381 66.4651 196.815Z" fill="#9E2439"/>
<path d="M71.9444 192.972L35.6853 177.185C36.7918 176.538 37.9201 175.965 39.0828 175.435L75.3418 191.222C74.1792 191.752 73.037 192.341 71.9444 192.972Z" fill="#A3253B"/>
<path d="M113.716 145.649C115.24 163.421 104.626 180.985 89.1115 188.03C86.9189 189.032 84.6305 189.813 82.26 190.357C79.9047 190.9 77.6028 191.177 75.3417 191.222C59.2356 191.5 46.042 179.413 44.5152 161.612L113.716 145.649Z" fill="#D8314E"/>
<path d="M62.885 188.78L26.6259 172.993C16.5871 168.627 9.35426 158.725 8.25756 145.839L44.5166 161.627C45.6133 174.512 52.8461 184.414 62.885 188.78Z" fill="#801D2E"/>
<path d="M44.5157 161.627L8.2566 145.839L77.4562 129.862L113.715 145.649L44.5157 161.627Z" fill="#AF283F"/>
<path d="M641.537 19.183L648.054 95.2465L569.546 35.7869L641.537 19.183Z" fill="#D8314E"/>
<path d="M648.054 95.2465L611.78 79.4604L533.286 19.9995L569.546 35.7869L648.054 95.2465Z" fill="#7C1C2D"/>
<path d="M569.546 35.7869L533.287 19.9996L605.278 3.39564L641.537 19.183L569.546 35.7869Z" fill="#AF283F"/>
<path d="M568.626 37.8704L647.118 97.3161L575.128 113.935L568.626 37.8704Z" fill="#D8314E"/>
<path d="M575.128 113.935L538.869 98.1478L532.352 22.0843L568.626 37.8704L575.128 113.935Z" fill="#7E1D2D"/>
</g>
<path d="M61.5829 288.476L71.4924 286.111L69.0598 275.921L75.9229 274.282L82.226 300.684L75.3629 302.323L72.7631 291.433L62.8535 293.799L65.4534 304.689L58.5902 306.327L52.2871 279.925L59.1503 278.287L61.5829 288.476ZM89.213 280.029L91.6289 290.149C92.1583 292.367 93.4969 293.219 95.6445 292.707C97.7922 292.194 98.6013 290.829 98.0718 288.611L95.6559 278.491L101.994 276.978L104.702 288.323C105.282 290.751 104.911 292.764 103.59 294.363C102.293 295.956 100.057 297.131 96.8817 297.889C93.707 298.647 91.1693 298.611 89.2688 297.782C87.3916 296.947 86.1632 295.315 85.5836 292.888L82.8751 281.543L89.213 280.029ZM119.308 277.73C117.996 277.402 116.779 277.372 115.659 277.639C115.075 277.778 114.625 278.009 114.307 278.332C114.012 278.649 113.912 279.006 114.007 279.403C114.057 279.613 114.123 279.782 114.203 279.911C114.301 280.011 114.457 280.097 114.671 280.17C114.909 280.236 115.226 280.272 115.622 280.276C116.041 280.274 116.583 280.268 117.246 280.258C119.081 280.19 120.538 280.508 121.62 281.213C122.695 281.894 123.4 282.934 123.734 284.335C123.985 285.385 124.001 286.381 123.781 287.322C123.562 288.262 123.148 289.114 122.54 289.876C121.927 290.614 121.131 291.261 120.153 291.815C119.181 292.393 118.064 292.832 116.804 293.133C114.376 293.712 111.819 293.595 109.132 292.781L110.373 287.747C112.437 288.537 114.263 288.743 115.85 288.364C116.434 288.224 116.882 287.982 117.194 287.636C117.506 287.29 117.615 286.919 117.52 286.522C117.465 286.288 117.385 286.11 117.282 285.986C117.196 285.834 117.046 285.722 116.831 285.65C116.611 285.554 116.303 285.505 115.907 285.5C115.529 285.467 115.034 285.462 114.423 285.485C112.367 285.556 110.851 285.301 109.873 284.72C108.913 284.11 108.269 283.117 107.94 281.74C107.7 280.736 107.673 279.792 107.857 278.91C108.035 278.003 108.408 277.187 108.974 276.459C109.541 275.732 110.278 275.099 111.186 274.562C112.117 274.019 113.19 273.602 114.404 273.312C116.388 272.839 118.406 272.764 120.457 273.088L119.308 277.73ZM137.123 273.477C135.811 273.149 134.595 273.118 133.475 273.386C132.891 273.525 132.44 273.756 132.123 274.079C131.828 274.396 131.728 274.753 131.823 275.15C131.873 275.36 131.938 275.529 132.018 275.658C132.116 275.758 132.273 275.844 132.487 275.916C132.725 275.983 133.042 276.018 133.438 276.022C133.857 276.021 134.398 276.015 135.062 276.005C136.897 275.937 138.354 276.255 139.435 276.959C140.511 277.64 141.216 278.681 141.55 280.082C141.801 281.132 141.817 282.128 141.597 283.068C141.377 284.009 140.964 284.86 140.356 285.622C139.743 286.361 138.947 287.007 137.969 287.562C136.997 288.139 135.88 288.579 134.62 288.879C132.192 289.459 129.635 289.342 126.948 288.527L128.189 283.493C130.253 284.284 132.079 284.49 133.666 284.111C134.25 283.971 134.698 283.729 135.01 283.383C135.322 283.037 135.431 282.665 135.336 282.268C135.28 282.035 135.201 281.857 135.097 281.733C135.012 281.581 134.861 281.469 134.647 281.397C134.427 281.301 134.119 281.251 133.723 281.247C133.345 281.214 132.85 281.209 132.239 281.231C130.183 281.303 128.666 281.048 127.689 280.467C126.729 279.857 126.085 278.864 125.756 277.486C125.516 276.483 125.488 275.539 125.672 274.656C125.851 273.75 126.223 272.933 126.79 272.206C127.356 271.478 128.094 270.846 129.002 270.308C129.933 269.765 131.006 269.349 132.22 269.059C134.204 268.585 136.222 268.511 138.273 268.835L137.123 273.477ZM149.945 274.969C150.084 275.552 150.32 276.076 150.653 276.539C150.98 276.979 151.363 277.344 151.802 277.634C152.265 277.918 152.767 278.107 153.307 278.2C153.871 278.288 154.444 278.262 155.028 278.122C155.588 277.989 156.088 277.758 156.528 277.431C156.992 277.098 157.354 276.703 157.615 276.246C157.899 275.784 158.088 275.282 158.181 274.742C158.298 274.196 158.289 273.643 158.155 273.083C158.021 272.522 157.779 272.025 157.429 271.59C157.096 271.127 156.698 270.753 156.236 270.469C155.796 270.179 155.295 269.99 154.731 269.903C154.191 269.81 153.64 269.83 153.08 269.964C152.497 270.103 151.973 270.339 151.51 270.672C151.07 270.999 150.707 271.394 150.423 271.856C150.162 272.314 149.985 272.812 149.892 273.353C149.793 273.87 149.811 274.408 149.945 274.969ZM155.797 264.134L162.17 262.612L166.458 280.575L160.085 282.097L159.609 280.101C158.661 282.128 157.032 283.418 154.721 283.969C153.414 284.282 152.156 284.335 150.948 284.13C149.733 283.902 148.615 283.453 147.591 282.785C146.568 282.116 145.684 281.254 144.938 280.198C144.216 279.137 143.691 277.918 143.362 276.54C143.055 275.256 142.987 273.989 143.158 272.74C143.322 271.467 143.699 270.303 144.286 269.25C144.874 268.197 145.657 267.294 146.638 266.542C147.612 265.767 148.765 265.22 150.095 264.902C152.336 264.367 154.379 264.706 156.223 265.919L155.797 264.134ZM172.82 260.069L177.109 278.033L170.771 279.546L166.483 261.582L172.82 260.069ZM164.416 254.785C164.298 254.294 164.283 253.817 164.37 253.352C164.45 252.864 164.615 252.418 164.864 252.013C165.113 251.608 165.425 251.262 165.801 250.975C166.2 250.682 166.644 250.477 167.134 250.36C167.625 250.243 168.102 250.228 168.567 250.314C169.055 250.395 169.502 250.56 169.906 250.809C170.311 251.058 170.66 251.382 170.953 251.781C171.24 252.156 171.442 252.589 171.559 253.079C171.676 253.569 171.694 254.059 171.613 254.547C171.527 255.012 171.359 255.446 171.11 255.851C170.861 256.256 170.538 256.605 170.139 256.897C169.763 257.184 169.33 257.387 168.84 257.504C168.35 257.621 167.86 257.639 167.372 257.558C166.908 257.471 166.473 257.304 166.068 257.055C165.663 256.806 165.317 256.494 165.03 256.118C164.737 255.719 164.533 255.275 164.416 254.785ZM177.151 259.035L183.489 257.522L184.033 259.798C184.646 258.542 185.354 257.632 186.157 257.07C186.955 256.485 187.949 256.05 189.14 255.766C190.401 255.465 191.525 255.419 192.512 255.627C193.517 255.807 194.424 256.195 195.233 256.791C195.891 257.276 196.403 257.869 196.768 258.572C197.133 259.274 197.43 260.104 197.658 261.061L200.384 272.476L194.046 273.989L191.881 264.92C191.669 264.033 191.429 263.338 191.161 262.834C190.91 262.302 190.582 261.911 190.178 261.662C189.831 261.449 189.468 261.326 189.09 261.293C188.712 261.26 188.325 261.291 187.928 261.385C186.854 261.642 186.103 262.166 185.676 262.959C185.266 263.723 185.203 264.701 185.487 265.891L187.778 275.486L181.44 276.999L177.151 259.035ZM226.995 245.359C226.103 244.931 225.25 244.666 224.436 244.564C223.617 244.439 222.857 244.46 222.156 244.627C221.269 244.839 220.596 245.222 220.136 245.776C219.676 246.329 219.527 246.945 219.688 247.622C219.8 248.089 220.032 248.441 220.385 248.677C220.737 248.914 221.163 249.096 221.662 249.223C222.179 249.322 222.737 249.386 223.337 249.416C223.959 249.44 224.573 249.478 225.178 249.531C227.597 249.743 229.471 250.357 230.799 251.372C232.145 252.359 233.058 253.856 233.537 255.863C233.86 257.217 233.919 258.499 233.714 259.707C233.533 260.91 233.093 262.015 232.395 263.02C231.716 263.997 230.784 264.848 229.6 265.575C228.446 266.319 227.063 266.884 225.452 267.269C222.114 268.065 218.784 267.812 215.462 266.507L217.083 260.273C218.327 260.938 219.504 261.372 220.614 261.576C221.724 261.78 222.769 261.765 223.749 261.531C224.87 261.264 225.637 260.809 226.052 260.167C226.489 259.52 226.63 258.869 226.474 258.216C226.379 257.819 226.228 257.497 226.021 257.251C225.809 256.98 225.511 256.768 225.129 256.612C224.741 256.434 224.253 256.303 223.666 256.221C223.102 256.134 222.416 256.051 221.608 255.972C220.654 255.904 219.706 255.81 218.764 255.689C217.841 255.539 216.973 255.265 216.162 254.867C215.375 254.463 214.671 253.89 214.05 253.15C213.447 252.381 212.989 251.343 212.677 250.036C212.365 248.729 212.294 247.5 212.463 246.349C212.651 245.169 213.04 244.114 213.632 243.183C214.242 242.223 215.057 241.399 216.077 240.712C217.121 240.018 218.343 239.505 219.743 239.17C221.051 238.858 222.461 238.719 223.974 238.752C225.482 238.763 226.973 238.962 228.447 239.35L226.995 245.359ZM242.956 252.764C243.095 253.347 243.331 253.871 243.664 254.334C243.991 254.774 244.374 255.139 244.814 255.429C245.276 255.713 245.778 255.902 246.318 255.995C246.882 256.083 247.456 256.057 248.039 255.917C248.599 255.784 249.1 255.553 249.54 255.226C250.003 254.893 250.365 254.498 250.626 254.041C250.911 253.579 251.099 253.077 251.192 252.537C251.309 251.991 251.3 251.438 251.166 250.877C251.033 250.317 250.79 249.82 250.44 249.385C250.107 248.922 249.71 248.548 249.247 248.264C248.808 247.974 248.306 247.785 247.742 247.698C247.202 247.605 246.652 247.625 246.091 247.759C245.508 247.898 244.984 248.134 244.521 248.467C244.081 248.794 243.719 249.189 243.434 249.651C243.173 250.108 242.996 250.607 242.903 251.148C242.805 251.665 242.822 252.203 242.956 252.764ZM248.808 241.928L255.181 240.407L259.469 258.37L253.096 259.892L252.62 257.896C251.673 259.923 250.044 261.213 247.733 261.764C246.425 262.076 245.167 262.13 243.959 261.925C242.744 261.697 241.626 261.248 240.603 260.58C239.579 259.911 238.695 259.049 237.949 257.993C237.227 256.932 236.702 255.712 236.373 254.335C236.066 253.051 235.998 251.784 236.169 250.535C236.334 249.262 236.71 248.098 237.297 247.045C237.885 245.992 238.669 245.089 239.649 244.337C240.623 243.562 241.776 243.015 243.107 242.697C245.348 242.162 247.39 242.501 249.234 243.714L248.808 241.928ZM263.182 226.764L270.12 255.827L263.782 257.341L256.844 228.277L263.182 226.764ZM276.501 235.317L280.789 253.28L274.451 254.794L270.163 236.83L276.501 235.317ZM268.096 230.032C267.979 229.542 267.963 229.065 268.05 228.6C268.131 228.112 268.295 227.665 268.544 227.261C268.793 226.856 269.105 226.51 269.481 226.223C269.88 225.93 270.324 225.725 270.815 225.608C271.305 225.491 271.782 225.476 272.247 225.562C272.735 225.643 273.182 225.808 273.586 226.057C273.991 226.306 274.34 226.629 274.633 227.028C274.92 227.404 275.122 227.837 275.239 228.327C275.356 228.817 275.374 229.307 275.293 229.795C275.207 230.259 275.039 230.694 274.79 231.099C274.541 231.504 274.218 231.853 273.819 232.145C273.443 232.432 273.01 232.634 272.52 232.751C272.03 232.868 271.541 232.887 271.052 232.806C270.588 232.719 270.153 232.552 269.748 232.303C269.343 232.054 268.997 231.742 268.71 231.366C268.417 230.967 268.213 230.523 268.096 230.032ZM278.182 223.183L284.519 221.67L287.713 235.046C288.326 233.79 289.034 232.88 289.837 232.318C290.635 231.733 291.63 231.298 292.82 231.014C295.084 230.473 296.939 230.697 298.384 231.684C299.846 232.643 300.831 234.184 301.338 236.309L304.064 247.724L297.726 249.237L295.561 240.168C295.343 239.257 295.098 238.539 294.824 238.012C294.55 237.485 294.214 237.109 293.814 236.884C293.137 236.527 292.401 236.444 291.608 236.633C290.534 236.89 289.783 237.414 289.356 238.207C288.946 238.971 288.883 239.948 289.167 241.139L291.458 250.733L285.12 252.246L278.182 223.183ZM319.677 243.996L317.856 216.524L324.65 214.903L333.297 227.717L335.189 212.386L341.982 210.765L352.768 236.097L345.939 237.727L340.035 223.073L337.431 239.758L334.699 240.41L325.154 226.626L326.506 242.366L319.677 243.996ZM359.288 224.991C359.428 225.574 359.664 226.098 359.996 226.561C360.323 227.001 360.707 227.366 361.146 227.656C361.609 227.941 362.11 228.129 362.65 228.222C363.214 228.31 363.788 228.284 364.371 228.145C364.932 228.011 365.432 227.78 365.872 227.453C366.335 227.121 366.698 226.726 366.959 226.269C367.243 225.806 367.432 225.304 367.525 224.764C367.641 224.218 367.632 223.665 367.499 223.105C367.365 222.544 367.123 222.047 366.772 221.613C366.44 221.149 366.042 220.775 365.579 220.491C365.14 220.201 364.638 220.012 364.075 219.925C363.534 219.832 362.984 219.852 362.424 219.986C361.84 220.125 361.317 220.361 360.853 220.694C360.413 221.021 360.051 221.416 359.767 221.879C359.506 222.336 359.329 222.835 359.236 223.375C359.137 223.892 359.154 224.431 359.288 224.991ZM365.14 214.156L371.513 212.634L375.802 230.598L369.429 232.119L368.952 230.123C368.005 232.15 366.376 233.44 364.065 233.992C362.758 234.304 361.5 234.357 360.291 234.152C359.077 233.924 357.958 233.476 356.935 232.807C355.912 232.138 355.027 231.276 354.282 230.22C353.559 229.159 353.034 227.94 352.705 226.562C352.399 225.279 352.331 224.012 352.501 222.762C352.666 221.489 353.042 220.326 353.63 219.273C354.217 218.219 355.001 217.317 355.981 216.564C356.956 215.789 358.108 215.242 359.439 214.925C361.68 214.39 363.722 214.729 365.566 215.942L365.14 214.156ZM373.176 200.505L379.514 198.992L382.707 212.368C383.32 211.111 384.028 210.202 384.832 209.64C385.63 209.054 386.624 208.62 387.815 208.335C390.079 207.795 391.934 208.018 393.378 209.006C394.841 209.964 395.826 211.506 396.333 213.63L399.058 225.045L392.72 226.558L390.555 217.489C390.338 216.579 390.092 215.86 389.818 215.333C389.545 214.807 389.208 214.431 388.809 214.205C388.131 213.849 387.396 213.765 386.602 213.955C385.528 214.211 384.778 214.736 384.35 215.529C383.94 216.293 383.878 217.27 384.162 218.46L386.452 228.055L380.114 229.568L373.176 200.505ZM407.093 213.578C407.233 214.162 407.469 214.685 407.801 215.149C408.128 215.589 408.512 215.954 408.951 216.244C409.414 216.528 409.915 216.717 410.455 216.81C411.019 216.897 411.593 216.871 412.176 216.732C412.737 216.598 413.237 216.368 413.677 216.041C414.14 215.708 414.503 215.313 414.764 214.856C415.048 214.393 415.237 213.892 415.33 213.351C415.446 212.805 415.437 212.252 415.304 211.692C415.17 211.132 414.928 210.634 414.577 210.2C414.245 209.736 413.847 209.363 413.384 209.078C412.945 208.788 412.443 208.6 411.88 208.512C411.339 208.419 410.789 208.439 410.229 208.573C409.668 208.707 409.157 208.94 408.693 209.273C408.253 209.6 407.891 209.995 407.607 210.458C407.346 210.915 407.157 211.416 407.041 211.962C406.942 212.479 406.959 213.018 407.093 213.578ZM410.295 191.643L416.668 190.122L423.607 219.185L417.234 220.706L416.757 218.71C415.81 220.738 414.181 222.027 411.87 222.579C410.563 222.891 409.302 222.933 408.088 222.705C406.873 222.476 405.755 222.028 404.731 221.359C403.708 220.691 402.824 219.828 402.078 218.773C401.356 217.711 400.833 216.504 400.51 215.15C400.204 213.866 400.124 212.602 400.271 211.358C400.436 210.084 400.812 208.921 401.4 207.868C401.987 206.815 402.771 205.912 403.751 205.16C404.749 204.379 405.913 203.83 407.244 203.512C409.485 202.977 411.527 203.316 413.371 204.529L410.295 191.643ZM429.969 198.679L434.257 216.642L427.919 218.155L423.631 200.192L429.969 198.679ZM421.564 193.394C421.447 192.904 421.432 192.426 421.518 191.962C421.599 191.473 421.764 191.027 422.013 190.622C422.261 190.217 422.574 189.871 422.949 189.584C423.348 189.292 423.793 189.087 424.283 188.97C424.773 188.853 425.251 188.837 425.715 188.924C426.204 189.005 426.65 189.17 427.055 189.418C427.46 189.667 427.808 189.991 428.101 190.39C428.388 190.766 428.59 191.199 428.707 191.689C428.824 192.179 428.842 192.668 428.762 193.156C428.675 193.621 428.507 194.056 428.259 194.461C428.01 194.866 427.686 195.214 427.287 195.507C426.911 195.794 426.479 195.996 425.988 196.113C425.498 196.23 425.009 196.248 424.521 196.167C424.056 196.081 423.621 195.913 423.216 195.664C422.812 195.416 422.466 195.103 422.179 194.728C421.886 194.329 421.681 193.884 421.564 193.394Z" fill="#EDEDED"/>
<path d="M79.7173 343.702L80.2853 346.06C78.9028 345.374 77.5963 345.18 76.3658 345.476C75.0101 345.803 73.9853 346.565 73.2914 347.763C72.5904 348.956 72.4087 350.253 72.7463 351.655C73.0797 353.039 73.8281 354.094 74.9914 354.821C76.1548 355.547 77.4144 355.747 78.7701 355.42C79.4708 355.251 80.0386 354.994 80.4736 354.648C80.7196 354.468 80.9645 354.247 81.2084 353.983C81.458 353.718 81.7122 353.41 81.971 353.058L82.5494 355.459C81.5651 356.377 80.4464 356.987 79.1932 357.289C77.3076 357.743 75.5399 357.473 73.89 356.478C72.243 355.471 71.1938 354.03 70.7424 352.156C70.3376 350.475 70.5321 348.843 71.326 347.26C72.3048 345.318 73.8794 344.086 76.0497 343.563C77.2346 343.278 78.4571 343.324 79.7173 343.702ZM83.4678 351.54C83.1782 350.338 83.362 349.212 84.0191 348.162C84.6762 347.112 85.6228 346.438 86.8589 346.14C88.1008 345.841 89.2568 346.011 90.3271 346.652C91.3861 347.294 92.0644 348.234 92.3621 349.47C92.6626 350.718 92.4843 351.867 91.8273 352.917C91.1631 353.963 90.2016 354.637 88.9426 354.941C87.6951 355.241 86.5469 355.066 85.498 354.414C84.4519 353.774 83.7751 352.816 83.4678 351.54ZM85.4413 351.101C85.6416 351.933 86.0222 352.537 86.5832 352.914C87.1569 353.294 87.8169 353.395 88.5631 353.215C89.3151 353.034 89.8577 352.647 90.1911 352.054C90.5245 351.462 90.5938 350.761 90.3989 349.952C90.2041 349.143 89.8233 348.551 89.2567 348.175C88.683 347.795 88.023 347.695 87.2768 347.874C86.5419 348.051 86.0056 348.44 85.6679 349.039C85.3302 349.639 85.2547 350.326 85.4413 351.101ZM93.3999 344.808L95.3225 344.345L95.5077 345.114C95.7847 344.638 96.0377 344.3 96.2668 344.1C96.5116 343.89 96.8448 343.735 97.2664 343.633C98.2063 343.407 99.0484 343.638 99.7929 344.326C100.199 343.361 100.918 342.753 101.949 342.505C103.823 342.054 105.034 342.964 105.581 345.237L106.82 350.381L104.889 350.846L103.776 346.224C103.584 345.426 103.351 344.886 103.078 344.602C102.797 344.314 102.429 344.225 101.974 344.334C101.444 344.462 101.104 344.755 100.956 345.212C100.812 345.669 100.847 346.338 101.06 347.221L102.095 351.519L100.164 351.985L99.0567 347.388C98.6999 345.906 98.0943 345.269 97.2398 345.475C96.6987 345.605 96.3515 345.903 96.1983 346.367C96.0507 346.831 96.0819 347.498 96.2919 348.37L97.3272 352.668L95.4046 353.131L93.3999 344.808ZM112.483 353.809L110.56 354.272L107.464 341.421L109.387 340.958L109.605 341.863C110.18 340.923 110.949 340.337 111.912 340.105C113.057 339.829 114.101 340.024 115.045 340.689C115.998 341.345 116.629 342.311 116.936 343.587C117.237 344.835 117.114 345.964 116.568 346.975C116.027 347.98 115.192 348.618 114.064 348.89C113.09 349.124 112.124 348.944 111.167 348.349L112.483 353.809ZM114.973 344.069C114.781 343.271 114.408 342.674 113.854 342.277C113.294 341.876 112.68 341.755 112.014 341.916C111.307 342.086 110.794 342.469 110.473 343.065C110.152 343.66 110.088 344.357 110.28 345.154C110.468 345.935 110.843 346.525 111.403 346.927C111.956 347.318 112.585 347.429 113.291 347.258C113.958 347.098 114.447 346.715 114.759 346.109C115.083 345.501 115.154 344.821 114.973 344.069ZM119.88 338.43L121.03 343.207C121.362 344.585 122.072 345.143 123.161 344.881C124.249 344.619 124.627 343.799 124.294 342.42L123.144 337.644L125.066 337.181L126.227 342C126.388 342.666 126.444 343.262 126.395 343.786C126.34 344.257 126.158 344.714 125.848 345.156C125.335 345.876 124.577 346.357 123.574 346.599C122.577 346.839 121.686 346.755 120.901 346.348C120.419 346.096 120.043 345.774 119.773 345.381C119.52 345.032 119.302 344.476 119.118 343.712L117.957 338.893L119.88 338.43ZM129.908 337.913L131.48 344.441L129.558 344.904L127.985 338.376L127.165 338.574L126.733 336.779L127.553 336.582L126.818 333.531L128.741 333.068L129.476 336.119L130.971 335.759L131.403 337.553L129.908 337.913ZM141.123 338.195L135.158 339.632C135.374 340.303 135.727 340.793 136.218 341.103C136.707 341.407 137.259 341.485 137.874 341.337C138.353 341.222 138.721 341.012 138.98 340.709C139.233 340.407 139.481 339.901 139.726 339.191L141.568 339.706C141.42 340.194 141.244 340.625 141.039 341C140.832 341.369 140.594 341.692 140.323 341.968C140.05 342.238 139.74 342.464 139.392 342.644C139.043 342.824 138.653 342.967 138.22 343.071C136.978 343.37 135.885 343.211 134.941 342.595C133.996 341.973 133.363 340.998 133.043 339.671C132.726 338.355 132.834 337.202 133.367 336.212C133.909 335.232 134.786 334.595 135.999 334.303C137.224 334.008 138.286 334.165 139.187 334.774C140.079 335.379 140.691 336.367 141.022 337.74L141.123 338.195ZM138.77 337.098C138.255 336.137 137.485 335.781 136.46 336.027C136.226 336.084 136.016 336.174 135.829 336.297C135.64 336.415 135.477 336.563 135.339 336.741C135.205 336.911 135.101 337.105 135.027 337.322C134.953 337.539 134.913 337.774 134.908 338.029L138.77 337.098ZM142.122 333.073L144.044 332.61L144.223 333.353C144.487 332.898 144.739 332.569 144.98 332.366C145.225 332.156 145.538 332.006 145.92 331.914C146.427 331.792 146.996 331.829 147.628 332.026L147.172 333.999C146.745 333.824 146.357 333.779 146.01 333.863C144.961 334.115 144.628 335.033 145.009 336.617L146.049 340.932L144.126 341.395L142.122 333.073ZM161.194 325.405L159.81 326.751C159.382 326.299 159.012 326.027 158.7 325.933C158.371 325.82 157.982 325.817 157.532 325.925C156.979 326.058 156.558 326.326 156.269 326.727C155.979 327.122 155.89 327.553 156.002 328.02C156.157 328.664 156.761 329.067 157.812 329.23L159.258 329.451C160.433 329.626 161.344 329.967 161.991 330.474C162.636 330.976 163.067 331.68 163.285 332.585C163.578 333.799 163.415 334.899 162.797 335.885C162.174 336.879 161.259 337.521 160.051 337.812C158.906 338.088 157.879 337.977 156.97 337.479C156.072 336.978 155.383 336.134 154.904 334.948L156.814 334.018C157.092 334.77 157.38 335.267 157.679 335.509C158.227 335.98 158.894 336.12 159.68 335.931C160.301 335.781 160.766 335.449 161.076 334.935C161.386 334.42 161.464 333.844 161.31 333.206C161.249 332.949 161.155 332.725 161.031 332.532C160.91 332.332 160.752 332.162 160.555 332.023C160.363 331.876 160.129 331.755 159.853 331.658C159.575 331.557 159.254 331.474 158.889 331.411L157.489 331.188C155.499 330.86 154.327 329.961 153.973 328.491C153.734 327.5 153.913 326.58 154.511 325.731C155.106 324.876 155.968 324.313 157.096 324.041C158.617 323.675 159.983 324.129 161.194 325.405ZM170.833 326.537L171.448 329.091C170.881 328.662 170.399 328.389 170.003 328.273C169.612 328.15 169.186 328.145 168.725 328.256C168.001 328.43 167.461 328.828 167.105 329.45C166.748 330.073 166.662 330.766 166.846 331.529C167.034 332.309 167.419 332.895 168.001 333.285C168.589 333.673 169.245 333.781 169.968 333.606C170.43 333.495 170.813 333.298 171.118 333.013C171.413 332.737 171.724 332.264 172.051 331.595L172.662 334.133C171.979 334.725 171.248 335.115 170.467 335.303C169.18 335.613 168.003 335.457 166.937 334.834C165.869 334.205 165.186 333.27 164.887 332.028C164.588 330.786 164.774 329.632 165.445 328.566C166.117 327.501 167.091 326.814 168.367 326.507C169.187 326.309 170.009 326.319 170.833 326.537ZM174.532 325.266L176.536 333.588L174.614 334.051L172.609 325.729L174.532 325.266ZM171.485 322.338C171.404 322.002 171.456 321.682 171.642 321.378C171.828 321.074 172.092 320.881 172.434 320.799C172.782 320.715 173.107 320.766 173.411 320.952C173.714 321.132 173.907 321.396 173.991 321.744C174.074 322.091 174.023 322.417 173.837 322.721C173.657 323.024 173.393 323.217 173.046 323.3C172.698 323.384 172.372 323.333 172.068 323.147C171.765 322.961 171.57 322.692 171.485 322.338ZM185.657 327.468L179.693 328.904C179.909 329.576 180.262 330.066 180.753 330.376C181.242 330.68 181.794 330.758 182.409 330.61C182.888 330.494 183.256 330.285 183.515 329.982C183.767 329.68 184.016 329.174 184.261 328.464L186.103 328.979C185.955 329.466 185.779 329.898 185.574 330.272C185.367 330.642 185.128 330.964 184.857 331.24C184.585 331.511 184.275 331.736 183.926 331.917C183.578 332.097 183.188 332.239 182.755 332.344C181.513 332.643 180.42 332.484 179.476 331.868C178.53 331.246 177.898 330.271 177.578 328.944C177.261 327.628 177.369 326.475 177.902 325.485C178.443 324.504 179.321 323.868 180.534 323.576C181.759 323.281 182.821 323.438 183.721 324.047C184.614 324.651 185.226 325.64 185.557 327.013L185.657 327.468ZM183.305 326.371C182.79 325.41 182.02 325.053 180.995 325.3C180.761 325.356 180.551 325.446 180.364 325.57C180.175 325.687 180.012 325.835 179.874 326.013C179.74 326.184 179.636 326.378 179.562 326.595C179.487 326.811 179.448 327.047 179.443 327.301L183.305 326.371ZM186.656 322.345L188.588 321.88L188.773 322.649C189.284 321.821 189.962 321.305 190.805 321.102C191.773 320.869 192.601 320.992 193.289 321.471C193.881 321.877 194.319 322.666 194.601 323.84L195.83 328.941L193.899 329.406L192.779 324.758C192.582 323.938 192.331 323.398 192.028 323.14C191.729 322.874 191.286 322.812 190.699 322.954C190.061 323.107 189.659 323.427 189.493 323.913C189.331 324.392 189.375 325.15 189.625 326.187L190.592 330.203L188.661 330.668L186.656 322.345ZM201.439 320.285L200.053 321.514C199.679 321.062 199.307 320.88 198.936 320.969C198.76 321.012 198.623 321.108 198.527 321.258C198.429 321.402 198.402 321.565 198.446 321.748C198.523 322.067 198.969 322.293 199.785 322.428C200.91 322.621 201.694 322.861 202.137 323.146C202.579 323.431 202.876 323.887 203.027 324.513C203.22 325.317 203.086 326.06 202.624 326.744C202.172 327.395 201.539 327.819 200.724 328.015C199.328 328.351 198.176 327.909 197.267 326.687L198.725 325.532C199.048 325.876 199.283 326.087 199.429 326.167C199.715 326.327 200.02 326.368 200.345 326.29C200.994 326.133 201.247 325.759 201.105 325.166C201.022 324.824 200.695 324.566 200.122 324.39C199.905 324.34 199.689 324.293 199.473 324.248C199.258 324.204 199.038 324.157 198.816 324.108C198.192 323.969 197.733 323.791 197.439 323.572C197.065 323.295 196.812 322.882 196.68 322.336C196.506 321.612 196.609 320.954 196.991 320.362C197.384 319.767 197.943 319.383 198.666 319.208C199.731 318.952 200.655 319.311 201.439 320.285ZM212.06 321.108L206.096 322.545C206.312 323.216 206.665 323.706 207.156 324.016C207.645 324.32 208.197 324.398 208.812 324.25C209.291 324.135 209.659 323.925 209.918 323.622C210.17 323.32 210.419 322.814 210.664 322.104L212.506 322.619C212.358 323.107 212.182 323.538 211.977 323.913C211.77 324.282 211.531 324.604 211.261 324.881C210.988 325.151 210.678 325.377 210.33 325.557C209.981 325.737 209.591 325.88 209.158 325.984C207.916 326.283 206.823 326.124 205.879 325.508C204.933 324.886 204.301 323.911 203.981 322.584C203.664 321.268 203.772 320.115 204.305 319.125C204.847 318.145 205.724 317.508 206.937 317.216C208.162 316.921 209.224 317.078 210.124 317.687C211.017 318.291 211.629 319.28 211.96 320.653L212.06 321.108ZM209.708 320.011C209.193 319.05 208.423 318.693 207.398 318.94C207.164 318.997 206.954 319.086 206.767 319.21C206.578 319.328 206.415 319.475 206.277 319.653C206.143 319.824 206.039 320.018 205.965 320.235C205.89 320.452 205.851 320.687 205.846 320.941L209.708 320.011ZM225.385 309.843L220.096 311.117L220.859 314.287L225.995 313.051L226.445 314.922L221.31 316.159L222.372 320.568L227.661 319.294L228.112 321.165L220.832 322.919L217.654 309.726L224.934 307.972L225.385 309.843ZM233.018 304.714L234.949 304.249L238.425 318.681L236.494 319.146L236.284 318.274C235.705 319.197 234.937 319.774 233.98 320.005C232.841 320.279 231.795 320.091 230.843 319.441C229.892 318.772 229.264 317.802 228.958 316.532C228.658 315.29 228.782 314.163 229.328 313.152C229.867 312.136 230.697 311.493 231.819 311.223C232.793 310.988 233.761 311.177 234.722 311.789L233.018 304.714ZM230.923 316.058C231.115 316.856 231.485 317.454 232.033 317.852C232.594 318.253 233.207 318.374 233.874 318.213C234.586 318.042 235.102 317.658 235.423 317.063C235.739 316.45 235.804 315.753 235.616 314.973C235.428 314.193 235.053 313.602 234.493 313.2C233.935 312.81 233.305 312.7 232.605 312.869C231.944 313.028 231.452 313.412 231.128 314.02C230.812 314.633 230.743 315.312 230.923 316.058ZM240.77 309.311L241.92 314.087C242.252 315.466 242.963 316.024 244.051 315.762C245.139 315.5 245.517 314.679 245.184 313.301L244.034 308.524L245.957 308.061L247.117 312.881C247.278 313.547 247.334 314.142 247.285 314.666C247.23 315.138 247.048 315.594 246.738 316.037C246.225 316.757 245.467 317.238 244.464 317.479C243.467 317.719 242.576 317.636 241.791 317.228C241.309 316.977 240.933 316.655 240.663 316.261C240.41 315.912 240.192 315.356 240.008 314.593L238.847 309.774L240.77 309.311ZM254.947 306.276L255.562 308.83C254.994 308.401 254.513 308.128 254.117 308.012C253.726 307.889 253.3 307.884 252.838 307.995C252.115 308.169 251.575 308.567 251.219 309.19C250.862 309.812 250.776 310.505 250.96 311.268C251.148 312.048 251.533 312.634 252.115 313.024C252.703 313.413 253.359 313.52 254.082 313.346C254.543 313.234 254.927 313.037 255.232 312.752C255.527 312.476 255.838 312.003 256.165 311.334L256.776 313.872C256.093 314.464 255.362 314.854 254.581 315.042C253.294 315.353 252.117 315.196 251.051 314.573C249.983 313.944 249.3 313.009 249.001 311.767C248.702 310.525 248.888 309.371 249.559 308.306C250.231 307.24 251.204 306.553 252.48 306.246C253.301 306.048 254.123 306.058 254.947 306.276ZM262.858 303.99L264.789 303.525L266.794 311.848L264.863 312.313L264.653 311.441C264.039 312.372 263.277 312.948 262.365 313.167C261.215 313.445 260.163 313.258 259.211 312.607C258.26 311.938 257.632 310.969 257.326 309.698C257.025 308.451 257.148 307.321 257.694 306.31C258.24 305.298 259.074 304.658 260.196 304.387C261.165 304.154 262.129 304.344 263.09 304.956L262.858 303.99ZM259.291 309.225C259.483 310.022 259.853 310.62 260.401 311.019C260.962 311.42 261.576 311.541 262.242 311.38C262.954 311.208 263.471 310.825 263.791 310.229C264.108 309.617 264.172 308.92 263.984 308.14C263.796 307.359 263.422 306.769 262.861 306.367C262.303 305.977 261.674 305.867 260.973 306.035C260.312 306.195 259.82 306.578 259.496 307.187C259.18 307.799 259.111 308.479 259.291 309.225ZM269.63 304.257L271.203 310.786L269.28 311.249L267.708 304.721L266.887 304.918L266.455 303.124L267.275 302.926L266.541 299.876L268.463 299.413L269.198 302.463L270.693 302.103L271.126 303.897L269.63 304.257ZM272.715 305.955C272.426 304.753 272.609 303.627 273.267 302.577C273.924 301.527 274.87 300.853 276.106 300.555C277.348 300.256 278.504 300.426 279.575 301.067C280.633 301.71 281.312 302.649 281.61 303.885C281.91 305.133 281.732 306.282 281.075 307.332C280.411 308.378 279.449 309.052 278.19 309.356C276.943 309.656 275.794 309.481 274.745 308.829C273.699 308.189 273.023 307.231 272.715 305.955ZM274.689 305.516C274.889 306.348 275.27 306.952 275.831 307.329C276.404 307.709 277.064 307.81 277.811 307.63C278.562 307.449 279.105 307.062 279.439 306.469C279.772 305.877 279.841 305.176 279.646 304.367C279.452 303.558 279.071 302.966 278.504 302.59C277.93 302.21 277.27 302.11 276.524 302.29C275.789 302.467 275.253 302.855 274.915 303.455C274.578 304.054 274.502 304.741 274.689 305.516ZM282.647 299.223L284.57 298.76L284.749 299.504C285.013 299.048 285.265 298.719 285.506 298.517C285.751 298.307 286.064 298.156 286.445 298.065C286.952 297.942 287.522 297.98 288.154 298.177L287.698 300.149C287.27 299.975 286.883 299.93 286.535 300.014C285.487 300.266 285.154 301.184 285.535 302.768L286.575 307.083L284.652 307.546L282.647 299.223ZM79.2955 376.029L80.586 381.387L78.5951 381.866L75.4172 368.673L77.673 368.13C78.7781 367.864 79.6312 367.74 80.2322 367.758C80.8389 367.774 81.4101 367.944 81.946 368.267C82.882 368.825 83.4858 369.668 83.7575 370.796C84.0484 372.004 83.8745 373.058 83.2357 373.959C82.597 374.86 81.5912 375.476 80.2183 375.807L79.2955 376.029ZM78.8509 374.184L79.5943 374.005C81.4229 373.564 82.1677 372.64 81.8288 371.233C81.5008 369.872 80.3941 369.418 78.5086 369.872L77.8506 370.031L78.8509 374.184ZM85.6734 371.356L87.5959 370.893L87.775 371.636C88.039 371.181 88.2912 370.852 88.5317 370.649C88.7766 370.44 89.0898 370.289 89.4715 370.197C89.9784 370.075 90.548 370.113 91.1801 370.31L90.724 372.282C90.2963 372.108 89.9088 372.063 89.5613 372.146C88.5131 372.399 88.1798 373.317 88.5612 374.9L89.6006 379.215L87.6781 379.679L85.6734 371.356ZM92.6597 374.013C92.3702 372.811 92.5539 371.685 93.211 370.634C93.8681 369.584 94.8147 368.91 96.0509 368.612C97.2927 368.313 98.4488 368.484 99.5191 369.124C100.578 369.767 101.256 370.706 101.554 371.942C101.855 373.19 101.676 374.339 101.019 375.389C100.355 376.435 99.3935 377.11 98.1346 377.413C96.887 377.713 95.7388 377.538 94.6899 376.887C93.6438 376.247 92.967 375.289 92.6597 374.013ZM94.6332 373.573C94.8335 374.405 95.2142 375.009 95.7751 375.387C96.3488 375.767 97.0088 375.867 97.7551 375.687C98.507 375.506 99.0496 375.119 99.383 374.527C99.7164 373.934 99.7857 373.233 99.5908 372.424C99.396 371.616 99.0153 371.023 98.4486 370.647C97.8749 370.267 97.2149 370.167 96.4687 370.347C95.7338 370.524 95.1976 370.912 94.8598 371.512C94.5221 372.111 94.4466 372.799 94.6332 373.573ZM112.598 373.468C112.693 373.861 112.762 374.209 112.805 374.512C112.855 374.82 112.884 375.093 112.893 375.331C112.908 375.991 112.77 376.594 112.479 377.14C111.936 378.187 111.006 378.869 109.69 379.186C108.58 379.453 107.593 379.375 106.731 378.949C105.843 378.512 105.21 377.764 104.834 376.703L106.765 376.238C106.938 376.63 107.137 376.917 107.361 377.098C107.885 377.52 108.528 377.64 109.292 377.456C110.699 377.117 111.194 376.084 110.779 374.358L110.499 373.196C109.923 374.16 109.137 374.763 108.14 375.003C107.007 375.276 105.979 375.089 105.058 374.443C104.129 373.787 103.514 372.835 103.213 371.588C102.921 370.375 103.012 369.262 103.485 368.25C103.998 367.174 104.852 366.492 106.048 366.204C107.096 365.952 108.062 366.132 108.945 366.745L108.718 365.805L110.641 365.342L112.598 373.468ZM109.802 369.965C109.607 369.156 109.235 368.562 108.685 368.182C108.127 367.792 107.506 367.679 106.823 367.844C106.094 368.019 105.583 368.429 105.292 369.071C105.027 369.647 104.987 370.32 105.173 371.089C105.355 371.847 105.695 372.422 106.194 372.814C106.737 373.243 107.376 373.37 108.111 373.193C108.846 373.016 109.363 372.608 109.661 371.97C109.937 371.391 109.984 370.722 109.802 369.965ZM113.068 364.757L114.99 364.294L115.169 365.038C115.433 364.582 115.685 364.253 115.926 364.051C116.171 363.841 116.484 363.69 116.866 363.598C117.373 363.476 117.942 363.514 118.574 363.711L118.118 365.683C117.691 365.509 117.303 365.464 116.955 365.548C115.907 365.8 115.574 366.718 115.955 368.302L116.995 372.617L115.072 373.08L113.068 364.757ZM125.628 361.732L127.559 361.267L129.564 369.589L127.633 370.054L127.423 369.183C126.81 370.114 126.047 370.689 125.136 370.909C123.985 371.186 122.934 371 121.981 370.349C121.031 369.68 120.402 368.71 120.096 367.44C119.796 366.192 119.919 365.063 120.464 364.052C121.01 363.04 121.844 362.399 122.967 362.129C123.935 361.896 124.9 362.085 125.861 362.697L125.628 361.732ZM122.062 366.967C122.254 367.764 122.624 368.362 123.172 368.76C123.732 369.162 124.346 369.282 125.013 369.122C125.725 368.95 126.241 368.567 126.562 367.971C126.878 367.358 126.942 366.662 126.754 365.881C126.566 365.101 126.192 364.51 125.631 364.109C125.073 363.719 124.444 363.608 123.743 363.777C123.082 363.936 122.59 364.32 122.267 364.928C121.95 365.541 121.882 366.22 122.062 366.967ZM129.986 360.682L131.909 360.219L132.094 360.988C132.371 360.512 132.624 360.173 132.853 359.974C133.098 359.764 133.431 359.608 133.852 359.507C134.792 359.28 135.635 359.511 136.379 360.2C136.785 359.234 137.504 358.627 138.535 358.379C140.409 357.927 141.62 358.838 142.167 361.111L143.406 366.255L141.475 366.72L140.362 362.097C140.17 361.3 139.937 360.759 139.664 360.476C139.383 360.188 139.015 360.098 138.56 360.208C138.03 360.336 137.691 360.628 137.542 361.086C137.399 361.543 137.433 362.212 137.646 363.095L138.681 367.393L136.75 367.858L135.643 363.261C135.286 361.78 134.68 361.143 133.826 361.348C133.285 361.479 132.938 361.776 132.784 362.241C132.637 362.705 132.668 363.372 132.878 364.244L133.913 368.542L131.991 369.005L129.986 360.682ZM143.828 357.348L145.751 356.885L145.936 357.654C146.213 357.177 146.466 356.839 146.695 356.639C146.94 356.43 147.273 356.274 147.695 356.172C148.635 355.946 149.477 356.177 150.221 356.866C150.628 355.9 151.346 355.293 152.377 355.045C154.251 354.593 155.462 355.504 156.01 357.777L157.249 362.921L155.318 363.386L154.204 358.763C154.012 357.966 153.779 357.425 153.506 357.141C153.226 356.853 152.858 356.764 152.402 356.874C151.872 357.001 151.533 357.294 151.384 357.752C151.241 358.208 151.276 358.878 151.488 359.761L152.524 364.059L150.593 364.524L149.485 359.927C149.128 358.446 148.523 357.808 147.668 358.014C147.127 358.144 146.78 358.442 146.627 358.907C146.479 359.37 146.51 360.038 146.72 360.909L147.756 365.207L145.833 365.67L143.828 357.348ZM166.361 356.802L160.397 358.239C160.613 358.91 160.966 359.4 161.457 359.71C161.946 360.014 162.498 360.092 163.113 359.944C163.592 359.829 163.96 359.62 164.219 359.316C164.471 359.014 164.72 358.508 164.965 357.798L166.807 358.313C166.659 358.801 166.483 359.232 166.278 359.607C166.071 359.976 165.832 360.299 165.561 360.575C165.289 360.845 164.979 361.071 164.63 361.251C164.282 361.431 163.892 361.574 163.459 361.678C162.217 361.977 161.124 361.819 160.18 361.202C159.234 360.58 158.602 359.605 158.282 358.278C157.965 356.962 158.073 355.809 158.606 354.819C159.147 353.839 160.025 353.203 161.238 352.91C162.463 352.615 163.525 352.772 164.425 353.381C165.318 353.986 165.93 354.974 166.261 356.347L166.361 356.802ZM164.009 355.705C163.494 354.744 162.724 354.388 161.699 354.635C161.465 354.691 161.255 354.781 161.068 354.904C160.879 355.022 160.716 355.17 160.578 355.348C160.444 355.518 160.34 355.712 160.266 355.929C160.191 356.146 160.152 356.381 160.147 356.636L164.009 355.705ZM167.36 351.68L169.283 351.217L169.462 351.96C169.726 351.505 169.978 351.176 170.219 350.973C170.464 350.763 170.777 350.613 171.159 350.521C171.666 350.399 172.235 350.436 172.867 350.633L172.411 352.606C171.983 352.431 171.596 352.386 171.248 352.47C170.2 352.722 169.867 353.64 170.248 355.224L171.288 359.539L169.365 360.002L167.36 351.68ZM175.803 355.839L177.672 356.094L176.412 361.559L174.984 361.334L175.803 355.839ZM186.378 355.904L183.2 342.711L185.968 342.044C187.295 341.725 188.375 341.603 189.207 341.68C190.095 341.737 190.949 341.993 191.769 342.446C193.43 343.36 194.504 344.828 194.991 346.85C195.479 348.878 195.165 350.69 194.049 352.285C193.488 353.083 192.847 353.698 192.125 354.131C191.455 354.552 190.451 354.923 189.112 355.246L186.378 355.904ZM187.918 353.553L188.815 353.337C189.709 353.122 190.43 352.849 190.977 352.518C191.522 352.176 191.981 351.731 192.355 351.183C193.119 350.052 193.329 348.769 192.983 347.334C192.634 345.887 191.868 344.83 190.682 344.163C189.617 343.57 188.236 343.478 186.539 343.887L185.641 344.103L187.918 353.553ZM205.411 347.396L199.446 348.833C199.662 349.504 200.015 349.995 200.506 350.304C200.995 350.608 201.547 350.686 202.162 350.538C202.641 350.423 203.009 350.214 203.268 349.91C203.521 349.608 203.769 349.102 204.014 348.392L205.856 348.907C205.708 349.395 205.532 349.826 205.327 350.201C205.12 350.57 204.882 350.893 204.611 351.169C204.338 351.439 204.028 351.665 203.68 351.845C203.331 352.025 202.941 352.168 202.508 352.272C201.266 352.571 200.173 352.413 199.229 351.796C198.284 351.174 197.651 350.199 197.331 348.872C197.014 347.556 197.122 346.403 197.655 345.413C198.197 344.433 199.074 343.797 200.287 343.504C201.512 343.209 202.574 343.366 203.474 343.975C204.367 344.58 204.979 345.568 205.31 346.941L205.411 347.396ZM203.058 346.299C202.543 345.339 201.773 344.982 200.748 345.229C200.514 345.285 200.304 345.375 200.117 345.498C199.928 345.616 199.765 345.764 199.627 345.942C199.493 346.112 199.389 346.306 199.315 346.523C199.241 346.74 199.201 346.975 199.196 347.23L203.058 346.299ZM211.588 342.527L210.202 343.756C209.828 343.304 209.456 343.122 209.085 343.211C208.909 343.254 208.772 343.35 208.676 343.5C208.578 343.644 208.551 343.807 208.595 343.989C208.672 344.308 209.118 344.535 209.934 344.67C211.059 344.863 211.843 345.102 212.286 345.388C212.728 345.673 213.025 346.129 213.176 346.755C213.369 347.558 213.235 348.302 212.773 348.986C212.321 349.637 211.688 350.061 210.873 350.257C209.477 350.593 208.325 350.151 207.416 348.929L208.873 347.773C209.197 348.117 209.432 348.329 209.578 348.408C209.864 348.569 210.169 348.61 210.493 348.531C211.143 348.375 211.396 348.001 211.254 347.408C211.171 347.066 210.844 346.808 210.271 346.632C210.054 346.582 209.838 346.535 209.622 346.49C209.406 346.446 209.187 346.399 208.965 346.35C208.34 346.211 207.882 346.033 207.588 345.814C207.214 345.536 206.961 345.124 206.829 344.577C206.655 343.854 206.758 343.196 207.14 342.604C207.533 342.009 208.091 341.624 208.815 341.45C209.88 341.194 210.804 341.553 211.588 342.527ZM215.441 340.098L217.446 348.421L215.523 348.884L213.519 340.561L215.441 340.098ZM212.395 337.171C212.314 336.835 212.366 336.515 212.552 336.211C212.738 335.907 213.002 335.713 213.344 335.631C213.691 335.547 214.017 335.599 214.321 335.785C214.624 335.965 214.817 336.229 214.9 336.576C214.984 336.924 214.933 337.249 214.747 337.553C214.567 337.856 214.303 338.049 213.955 338.133C213.608 338.216 213.282 338.165 212.978 337.979C212.674 337.793 212.48 337.524 212.395 337.171ZM227.883 345.699C227.978 346.092 228.046 346.44 228.089 346.743C228.139 347.05 228.169 347.323 228.178 347.562C228.192 348.222 228.054 348.825 227.764 349.371C227.221 350.418 226.291 351.1 224.975 351.417C223.864 351.684 222.878 351.605 222.016 351.18C221.127 350.743 220.495 349.995 220.119 348.934L222.05 348.469C222.223 348.861 222.422 349.148 222.646 349.329C223.17 349.751 223.813 349.87 224.576 349.686C225.983 349.348 226.479 348.315 226.063 346.589L225.783 345.427C225.208 346.391 224.422 346.993 223.425 347.234C222.292 347.507 221.264 347.32 220.343 346.674C219.414 346.018 218.799 345.066 218.498 343.819C218.206 342.605 218.297 341.493 218.77 340.481C219.282 339.405 220.137 338.723 221.333 338.435C222.381 338.182 223.347 338.363 224.23 338.976L224.003 338.036L225.926 337.573L227.883 345.699ZM225.086 342.196C224.892 341.387 224.519 340.792 223.97 340.412C223.412 340.023 222.791 339.91 222.107 340.075C221.378 340.25 220.868 340.659 220.577 341.302C220.312 341.878 220.272 342.551 220.457 343.32C220.64 344.077 220.98 344.652 221.478 345.045C222.022 345.474 222.661 345.6 223.396 345.423C224.131 345.246 224.647 344.839 224.946 344.2C225.222 343.622 225.269 342.953 225.086 342.196ZM228.352 336.988L230.283 336.523L230.469 337.292C230.98 336.464 231.658 335.948 232.501 335.745C233.469 335.512 234.297 335.635 234.985 336.114C235.577 336.52 236.015 337.309 236.297 338.483L237.526 343.584L235.595 344.049L234.475 339.401C234.278 338.58 234.027 338.041 233.724 337.783C233.425 337.517 232.982 337.455 232.395 337.596C231.757 337.75 231.355 338.07 231.189 338.556C231.027 339.035 231.071 339.793 231.321 340.83L232.288 344.846L230.357 345.311L228.352 336.988ZM246.647 337.463L240.683 338.9C240.899 339.571 241.252 340.062 241.743 340.371C242.232 340.675 242.784 340.753 243.399 340.605C243.878 340.49 244.246 340.281 244.504 339.977C244.757 339.675 245.006 339.169 245.251 338.46L247.092 338.974C246.945 339.462 246.768 339.893 246.563 340.268C246.357 340.637 246.118 340.96 245.847 341.236C245.575 341.507 245.265 341.732 244.916 341.912C244.568 342.093 244.177 342.235 243.744 342.339C242.503 342.638 241.41 342.48 240.466 341.863C239.52 341.241 238.888 340.267 238.568 338.939C238.251 337.623 238.359 336.47 238.892 335.48C239.433 334.5 240.311 333.864 241.524 333.571C242.749 333.276 243.811 333.433 244.711 334.042C245.604 334.647 246.216 335.636 246.547 337.008L246.647 337.463ZM244.295 336.367C243.78 335.406 243.01 335.049 241.984 335.296C241.751 335.352 241.541 335.442 241.353 335.565C241.165 335.683 241.001 335.831 240.863 336.009C240.73 336.18 240.626 336.373 240.551 336.59C240.477 336.807 240.437 337.042 240.432 337.297L244.295 336.367ZM247.646 332.341L249.569 331.878L249.748 332.621C250.012 332.166 250.264 331.837 250.505 331.634C250.749 331.425 251.063 331.274 251.444 331.182C251.951 331.06 252.521 331.097 253.153 331.295L252.697 333.267C252.269 333.093 251.882 333.047 251.534 333.131C250.486 333.384 250.153 334.302 250.534 335.885L251.573 340.2L249.651 340.663L247.646 332.341ZM262.189 335.03L264.059 335.285L262.799 340.751L261.37 340.525L262.189 335.03ZM87.3299 398.5L92.7686 403.139L90.3333 403.725L85.2643 399.233L84.9055 399.319L86.2062 404.719L84.2153 405.199L81.0375 392.006L83.3702 391.444C85.1133 391.024 86.4511 391.049 87.3836 391.517C88.4137 392.04 89.0728 392.9 89.361 394.096C89.586 395.031 89.5118 395.898 89.1382 396.7C88.7646 397.501 88.1619 398.101 87.3299 398.5ZM84.4877 397.585L85.12 397.432C87.0055 396.978 87.7747 396.031 87.4275 394.589C87.1023 393.239 86.0226 392.785 84.1883 393.227L83.4791 393.398L84.4877 397.585ZM100.787 397.284L94.8232 398.72C95.0391 399.392 95.3923 399.882 95.8828 400.192C96.3719 400.496 96.9241 400.574 97.5393 400.426C98.0178 400.31 98.3863 400.101 98.6447 399.798C98.8974 399.496 99.1462 398.99 99.3911 398.28L101.233 398.795C101.085 399.282 100.909 399.713 100.704 400.088C100.497 400.457 100.258 400.78 99.9875 401.056C99.7151 401.327 99.4048 401.552 99.0565 401.733C98.7082 401.913 98.3176 402.055 97.8846 402.16C96.6428 402.459 95.5499 402.3 94.6058 401.684C93.6604 401.062 93.0279 400.087 92.7082 398.76C92.3912 397.444 92.4992 396.291 93.0321 395.301C93.5735 394.32 94.4509 393.684 95.6642 393.392C96.8889 393.097 97.9513 393.254 98.8514 393.863C99.7443 394.467 100.356 395.456 100.687 396.829L100.787 397.284ZM98.4349 396.187C97.9201 395.226 97.1501 394.869 96.1247 395.116C95.8912 395.172 95.6808 395.262 95.4936 395.386C95.305 395.503 95.1417 395.651 95.0037 395.829C94.8701 396 94.7661 396.194 94.6917 396.411C94.6174 396.627 94.5777 396.863 94.5727 397.117L98.4349 396.187ZM106.964 392.415L105.579 393.643C105.205 393.191 104.833 393.01 104.462 393.099C104.286 393.141 104.149 393.237 104.053 393.387C103.955 393.531 103.928 393.695 103.972 393.877C104.049 394.196 104.495 394.423 105.311 394.558C106.436 394.751 107.22 394.99 107.662 395.275C108.105 395.56 108.402 396.016 108.552 396.643C108.746 397.446 108.612 398.19 108.15 398.873C107.698 399.525 107.064 399.948 106.25 400.145C104.854 400.481 103.702 400.038 102.793 398.817L104.25 397.661C104.574 398.005 104.809 398.216 104.955 398.296C105.24 398.456 105.546 398.497 105.87 398.419C106.52 398.262 106.773 397.888 106.63 397.296C106.548 396.954 106.221 396.695 105.648 396.52C105.431 396.47 105.215 396.422 104.999 396.378C104.783 396.333 104.564 396.287 104.341 396.238C103.717 396.099 103.258 395.92 102.965 395.701C102.591 395.424 102.338 395.012 102.206 394.465C102.032 393.742 102.135 393.084 102.517 392.492C102.91 391.897 103.468 391.512 104.192 391.338C105.257 391.081 106.181 391.44 106.964 392.415ZM117.586 393.237L111.622 394.674C111.838 395.345 112.191 395.836 112.682 396.145C113.171 396.449 113.723 396.527 114.338 396.379C114.817 396.264 115.185 396.055 115.444 395.751C115.696 395.449 115.945 394.943 116.19 394.234L118.032 394.748C117.884 395.236 117.707 395.667 117.502 396.042C117.296 396.411 117.057 396.734 116.786 397.01C116.514 397.28 116.204 397.506 115.855 397.686C115.507 397.867 115.116 398.009 114.683 398.113C113.442 398.412 112.349 398.254 111.405 397.637C110.459 397.015 109.827 396.041 109.507 394.713C109.19 393.397 109.298 392.244 109.831 391.254C110.372 390.274 111.25 389.638 112.463 389.345C113.688 389.05 114.75 389.207 115.65 389.816C116.543 390.421 117.155 391.41 117.486 392.782L117.586 393.237ZM115.234 392.141C114.719 391.18 113.949 390.823 112.924 391.07C112.69 391.126 112.48 391.216 112.292 391.339C112.104 391.457 111.941 391.605 111.803 391.783C111.669 391.953 111.565 392.147 111.491 392.364C111.416 392.581 111.377 392.816 111.372 393.071L115.234 392.141ZM124.72 386.637L126.652 386.172L128.656 394.494L126.725 394.96L126.515 394.088C125.902 395.019 125.139 395.595 124.228 395.814C123.077 396.091 122.026 395.905 121.073 395.254C120.123 394.585 119.494 393.615 119.188 392.345C118.888 391.098 119.011 389.968 119.557 388.957C120.102 387.945 120.937 387.304 122.059 387.034C123.027 386.801 123.992 386.99 124.953 387.603L124.72 386.637ZM121.154 391.872C121.346 392.669 121.716 393.267 122.264 393.666C122.825 394.067 123.438 394.187 124.105 394.027C124.817 393.855 125.333 393.472 125.654 392.876C125.97 392.263 126.034 391.567 125.846 390.787C125.659 390.006 125.284 389.415 124.723 389.014C124.165 388.624 123.536 388.513 122.835 388.682C122.175 388.841 121.682 389.225 121.359 389.833C121.042 390.446 120.974 391.125 121.154 391.872ZM129.078 385.587L131.001 385.124L131.18 385.868C131.444 385.412 131.696 385.083 131.937 384.881C132.181 384.671 132.495 384.52 132.876 384.428C133.383 384.306 133.953 384.344 134.585 384.541L134.129 386.513C133.701 386.339 133.314 386.294 132.966 386.378C131.918 386.63 131.585 387.548 131.966 389.132L133.005 393.447L131.083 393.91L129.078 385.587ZM142.033 382.847L142.648 385.401C142.081 384.972 141.599 384.699 141.204 384.583C140.812 384.46 140.386 384.455 139.925 384.566C139.201 384.74 138.661 385.138 138.305 385.761C137.949 386.383 137.862 387.076 138.046 387.839C138.234 388.619 138.619 389.205 139.201 389.595C139.789 389.983 140.445 390.091 141.168 389.916C141.63 389.805 142.013 389.608 142.318 389.323C142.613 389.047 142.924 388.574 143.251 387.905L143.863 390.443C143.18 391.035 142.448 391.425 141.668 391.613C140.38 391.923 139.203 391.767 138.137 391.144C137.07 390.515 136.386 389.58 136.087 388.338C135.788 387.096 135.974 385.942 136.646 384.876C137.317 383.811 138.291 383.124 139.567 382.817C140.387 382.619 141.209 382.629 142.033 382.847ZM142.799 375.818L144.722 375.355L146.36 382.157C146.895 381.377 147.576 380.888 148.402 380.689C149.342 380.462 150.167 380.586 150.878 381.06C151.484 381.474 151.927 382.262 152.207 383.424L153.436 388.526L151.513 388.989L150.328 384.067C150.167 383.4 149.932 382.948 149.621 382.709C149.315 382.464 148.899 382.404 148.375 382.53C147.703 382.692 147.281 383.014 147.107 383.496C146.941 383.982 146.981 384.737 147.228 385.763L148.198 389.787L146.275 390.25L142.799 375.818ZM165.41 376.836L167.341 376.371L169.346 384.693L167.415 385.158L167.205 384.287C166.591 385.218 165.829 385.793 164.918 386.013C163.767 386.29 162.715 386.103 161.763 385.453C160.812 384.784 160.184 383.814 159.878 382.544C159.578 381.296 159.7 380.167 160.246 379.156C160.792 378.144 161.626 377.503 162.748 377.233C163.717 377 164.682 377.189 165.643 377.801L165.41 376.836ZM161.843 382.071C162.036 382.868 162.406 383.466 162.954 383.864C163.514 384.266 164.128 384.386 164.794 384.226C165.506 384.054 166.023 383.671 166.343 383.075C166.66 382.462 166.724 381.766 166.536 380.985C166.348 380.205 165.974 379.614 165.413 379.213C164.855 378.823 164.226 378.712 163.525 378.881C162.864 379.04 162.372 379.424 162.049 380.032C161.732 380.645 161.664 381.324 161.843 382.071ZM169.768 375.786L171.699 375.321L171.884 376.09C172.396 375.262 173.073 374.746 173.916 374.543C174.885 374.31 175.713 374.433 176.401 374.912C176.993 375.318 177.43 376.107 177.713 377.281L178.942 382.382L177.01 382.847L175.891 378.199C175.693 377.378 175.443 376.839 175.139 376.581C174.84 376.315 174.398 376.253 173.811 376.394C173.173 376.548 172.771 376.868 172.605 377.354C172.443 377.833 172.487 378.591 172.736 379.628L173.704 383.644L171.773 384.109L169.768 375.786ZM184.036 365.886L185.967 365.42L189.443 379.852L187.512 380.317L187.302 379.446C186.723 380.369 185.955 380.946 184.998 381.176C183.858 381.451 182.813 381.263 181.86 380.612C180.91 379.943 180.281 378.973 179.975 377.703C179.676 376.461 179.8 375.335 180.345 374.323C180.884 373.307 181.715 372.664 182.837 372.394C183.811 372.159 184.779 372.348 185.74 372.961L184.036 365.886ZM181.941 377.23C182.133 378.027 182.503 378.625 183.051 379.023C183.611 379.425 184.225 379.545 184.891 379.385C185.604 379.213 186.12 378.83 186.441 378.234C186.757 377.621 186.821 376.925 186.633 376.145C186.445 375.364 186.071 374.773 185.51 374.372C184.952 373.982 184.323 373.871 183.622 374.04C182.961 374.199 182.469 374.583 182.146 375.191C181.829 375.804 181.761 376.483 181.941 377.23ZM196.45 364.206L199.628 377.399L197.637 377.879L194.459 364.686L196.45 364.206ZM200.426 368.401L202.357 367.936L202.543 368.705C203.054 367.877 203.732 367.361 204.575 367.158C205.543 366.925 206.371 367.048 207.059 367.527C207.651 367.933 208.088 368.722 208.371 369.896L209.6 374.997L207.669 375.462L206.549 370.814C206.352 369.994 206.101 369.454 205.798 369.196C205.499 368.93 205.056 368.868 204.469 369.01C203.831 369.163 203.429 369.483 203.263 369.969C203.101 370.448 203.145 371.206 203.395 372.243L204.362 376.259L202.431 376.724L200.426 368.401ZM212.445 367.405L214.017 373.933L212.095 374.396L210.522 367.868L209.702 368.066L209.27 366.271L210.09 366.074L209.355 363.023L211.278 362.56L212.013 365.61L213.508 365.25L213.94 367.045L212.445 367.405ZM223.66 367.687L217.696 369.123C217.912 369.795 218.265 370.285 218.755 370.595C219.244 370.899 219.796 370.977 220.412 370.829C220.89 370.713 221.259 370.504 221.517 370.201C221.77 369.899 222.019 369.393 222.263 368.683L224.105 369.198C223.957 369.685 223.781 370.117 223.576 370.491C223.37 370.861 223.131 371.183 222.86 371.459C222.588 371.73 222.277 371.955 221.929 372.136C221.581 372.316 221.19 372.458 220.757 372.563C219.515 372.862 218.422 372.703 217.478 372.087C216.533 371.465 215.9 370.49 215.581 369.163C215.264 367.847 215.372 366.694 215.905 365.704C216.446 364.723 217.323 364.087 218.537 363.795C219.761 363.5 220.824 363.657 221.724 364.266C222.617 364.87 223.229 365.859 223.559 367.232L223.66 367.687ZM221.307 366.59C220.793 365.629 220.023 365.272 218.997 365.519C218.764 365.575 218.553 365.665 218.366 365.789C218.177 365.907 218.014 366.054 217.876 366.232C217.742 366.403 217.638 366.597 217.564 366.814C217.49 367.03 217.45 367.266 217.445 367.52L221.307 366.59ZM224.659 362.564L226.581 362.101L226.761 362.845C227.025 362.389 227.277 362.06 227.517 361.858C227.762 361.648 228.075 361.497 228.457 361.405C228.964 361.283 229.534 361.321 230.166 361.518L229.71 363.49C229.282 363.316 228.894 363.271 228.547 363.355C227.499 363.607 227.165 364.525 227.547 366.109L228.586 370.424L226.664 370.887L224.659 362.564ZM239.775 363.805L233.811 365.242C234.027 365.913 234.38 366.403 234.87 366.713C235.36 367.017 235.912 367.095 236.527 366.947C237.005 366.832 237.374 366.622 237.632 366.319C237.885 366.017 238.134 365.511 238.379 364.801L240.22 365.316C240.073 365.804 239.896 366.235 239.691 366.61C239.485 366.979 239.246 367.302 238.975 367.578C238.703 367.848 238.392 368.074 238.044 368.254C237.696 368.434 237.305 368.577 236.872 368.681C235.63 368.98 234.538 368.821 233.594 368.205C232.648 367.583 232.016 366.608 231.696 365.281C231.379 363.965 231.487 362.812 232.02 361.822C232.561 360.842 233.439 360.205 234.652 359.913C235.877 359.618 236.939 359.775 237.839 360.384C238.732 360.989 239.344 361.977 239.675 363.35L239.775 363.805ZM237.423 362.708C236.908 361.747 236.138 361.39 235.112 361.637C234.879 361.694 234.668 361.784 234.481 361.907C234.293 362.025 234.129 362.173 233.991 362.35C233.858 362.521 233.754 362.715 233.679 362.932C233.605 363.149 233.565 363.384 233.56 363.639L237.423 362.708ZM245.952 358.936L244.567 360.165C244.192 359.712 243.82 359.531 243.45 359.62C243.273 359.663 243.137 359.759 243.04 359.909C242.942 360.053 242.915 360.216 242.959 360.398C243.036 360.717 243.483 360.944 244.299 361.079C245.424 361.272 246.208 361.511 246.65 361.796C247.093 362.082 247.389 362.538 247.54 363.164C247.734 363.967 247.599 364.711 247.137 365.395C246.685 366.046 246.052 366.47 245.238 366.666C243.842 367.002 242.69 366.559 241.781 365.338L243.238 364.182C243.562 364.526 243.797 364.738 243.942 364.817C244.228 364.977 244.533 365.018 244.858 364.94C245.507 364.784 245.761 364.409 245.618 363.817C245.536 363.475 245.208 363.217 244.636 363.041C244.419 362.991 244.202 362.944 243.987 362.899C243.771 362.855 243.552 362.808 243.329 362.759C242.705 362.62 242.246 362.441 241.952 362.223C241.578 361.945 241.325 361.533 241.193 360.986C241.019 360.263 241.123 359.605 241.505 359.013C241.898 358.418 242.456 358.033 243.179 357.859C244.245 357.602 245.169 357.961 245.952 358.936ZM250.298 358.287L251.87 364.815L249.948 365.278L248.375 358.75L247.555 358.948L247.123 357.153L247.943 356.956L247.208 353.905L249.131 353.442L249.866 356.493L251.361 356.132L251.793 357.927L250.298 358.287ZM259.254 349.078L262.432 362.271L260.441 362.751L257.263 349.558L259.254 349.078ZM263.23 353.274L265.161 352.808L265.346 353.577C265.858 352.749 266.535 352.233 267.378 352.03C268.346 351.797 269.175 351.92 269.863 352.399C270.455 352.805 270.892 353.595 271.174 354.768L272.403 359.869L270.472 360.334L269.352 355.686C269.155 354.866 268.904 354.326 268.601 354.068C268.302 353.803 267.859 353.741 267.272 353.882C266.634 354.036 266.232 354.355 266.066 354.841C265.904 355.32 265.948 356.078 266.198 357.115L267.165 361.131L265.234 361.596L263.23 353.274ZM287.584 352.822L281.936 354.183L281.238 357.741L279.094 358.258L282.244 342.663L291.919 355.168L289.74 355.693L287.584 352.822ZM286.322 351.147L283.285 347.132L282.314 352.112L286.322 351.147ZM292.39 341.097L295.568 354.29L293.577 354.769L290.399 341.576L292.39 341.097Z" fill="#EDEDED"/>
<defs>
<clipPath id="clip0">
<rect width="642" height="181" fill="white" transform="translate(0.333862 56.3214) rotate(-5)"/>
</clipPath>
</defs>
</svg>
