<svg width="742" height="513" viewBox="0 0 742 513" fill="none" xmlns="http://www.w3.org/2000/svg">
<path d="M97.6622 297.948L66.0042 290.052C70.2286 288.306 74.4763 287.464 78.5981 287.45L110.256 295.346C106.134 295.36 101.883 296.187 97.6622 297.948Z" fill="#3200A7"/>
<path d="M110.256 295.346L78.5981 287.45C80.6914 287.442 82.76 287.653 84.7694 288.073L116.427 295.969C114.418 295.549 112.349 295.338 110.256 295.346Z" fill="#3100A2"/>
<path d="M116.427 295.969L84.7693 288.073C85.1819 288.161 85.5793 288.253 85.9766 288.344L117.635 296.24C117.237 296.149 116.821 296.046 116.427 295.969Z" fill="#2F009D"/>
<path d="M97.662 297.948C116.341 290.193 135.719 300.399 140.969 320.753L73.3344 348.833C68.0841 328.479 78.983 305.704 97.662 297.948Z" fill="#4200DD"/>
<path d="M73.3192 348.836L41.6612 340.94C40.4125 336.067 40.0701 331.056 40.5483 326.14L72.2063 334.036C71.7433 338.948 72.0705 343.963 73.3192 348.836Z" fill="#280084"/>
<path d="M72.2215 334.032L40.5482 326.14C40.7539 323.991 41.1275 321.864 41.6274 319.785L73.2854 327.681C72.7895 329.775 72.4311 331.898 72.2215 334.032Z" fill="#290089"/>
<path d="M73.3007 327.677L41.6427 319.781C42.0768 318.012 42.61 316.249 43.2583 314.554L74.9163 322.45C74.272 324.16 73.7348 325.908 73.3007 327.677Z" fill="#2B008E"/>
<path d="M74.9162 322.45L43.2429 314.558C43.8461 312.939 44.5524 311.343 45.3242 309.811L76.9822 317.707C76.2257 319.235 75.5154 320.816 74.9162 322.45Z" fill="#2C0093"/>
<path d="M76.9976 317.703L45.3396 309.807C46.1226 308.255 47.0127 306.741 47.9682 305.291L79.6262 313.187C78.6667 314.622 77.7919 316.132 76.9976 317.703Z" fill="#2E0098"/>
<path d="M79.626 313.187L47.9528 305.295C48.9911 303.726 50.1291 302.229 51.3518 300.807L83.0098 308.703C81.7984 310.106 80.6603 311.603 79.626 313.187Z" fill="#2F009D"/>
<path d="M83.0213 308.684L51.3633 300.788C52.8727 299.032 54.5169 297.419 56.2806 295.955L87.9386 303.851C86.1597 305.319 84.5194 306.947 83.0213 308.684Z" fill="#3100A2"/>
<path d="M87.9385 303.851L56.2805 295.955C59.2061 293.522 62.4672 291.506 66.0041 290.052L97.6621 297.948C94.114 299.421 90.8641 301.418 87.9385 303.851Z" fill="#3200A7"/>
<path d="M121.868 247.096C127.118 267.449 116.219 290.224 97.54 297.98C78.861 305.735 59.4831 295.529 54.2328 275.175L121.868 247.096Z" fill="#4200DD"/>
<path d="M77.5521 299.692L45.8941 291.796C34.9377 289.068 25.8901 280.242 22.5633 267.299L54.2213 275.195C57.5634 288.134 66.6109 296.96 77.5521 299.692Z" fill="#280084"/>
<path d="M54.2214 275.195L22.5634 267.299L90.1943 239.204L121.868 247.096L54.2214 275.195Z" fill="#3600B3"/>
<path d="M218.692 261.096C222.722 276.747 214.346 294.287 199.964 300.261C185.581 306.236 170.659 298.365 166.629 282.714L218.692 261.096Z" fill="#4200DD"/>
<path d="M184.598 301.569L152.94 293.673C144.517 291.572 137.539 284.774 134.986 274.814L166.644 282.71C169.193 292.655 176.171 299.452 184.598 301.569Z" fill="#280084"/>
<path d="M166.644 282.71L134.971 274.818L187.019 253.204L218.692 261.096L166.644 282.71Z" fill="#3600B3"/>
<path d="M580.287 65.0961L599.855 141.052L567.588 154.462L548.031 78.4871L580.287 65.0961Z" fill="#4200DD"/>
<path d="M567.588 154.462L535.93 146.566L516.358 70.5951L548.031 78.4871L567.588 154.462Z" fill="#270081"/>
<path d="M548.032 78.4867L516.359 70.5947L548.63 57.1997L580.288 65.0957L548.032 78.4867Z" fill="#3600B3"/>
<path d="M699.698 15.0958L719.342 91.4057L629.339 44.321L699.698 15.0958Z" fill="#4200DD"/>
<path d="M719.342 91.4057L687.688 83.525L597.666 36.4291L629.339 44.3211L719.342 91.4057Z" fill="#26007F"/>
<path d="M629.339 44.3211L597.666 36.4291L668.025 7.20383L699.698 15.0959L629.339 44.3211Z" fill="#3600B3"/>
<path d="M628.6 46.5433L718.607 93.6431L648.244 122.853L628.6 46.5433Z" fill="#4200DD"/>
<path d="M648.244 122.853L616.586 114.957L596.927 38.6512L628.6 46.5432L648.244 122.853Z" fill="#270081"/>
<path d="M293.41 204.82C307.323 213.554 311.358 234.548 302.441 251.692C298.217 259.821 291.829 265.621 284.793 268.552C277.01 271.79 268.435 271.482 261.119 266.884L293.41 204.82Z" fill="#4200DD"/>
<path d="M268.334 269.965L236.676 262.069C234.192 261.447 231.769 260.435 229.476 258.984L261.134 266.88C263.423 268.316 265.85 269.343 268.334 269.965Z" fill="#280084"/>
<path d="M261.119 266.884L229.461 258.988L261.753 196.924L293.411 204.82L261.119 266.884Z" fill="#3100A3"/>
<path d="M267.648 201.68L235.99 193.784C239.436 192.354 243.089 191.6 246.758 191.59L278.416 199.486C274.747 199.496 271.094 200.25 267.648 201.68Z" fill="#3200A7"/>
<path d="M278.416 199.486L246.758 191.59C248.542 191.582 250.328 191.768 252.097 192.137L283.755 200.033C281.986 199.664 280.204 199.493 278.416 199.486Z" fill="#3100A2"/>
<path d="M283.755 200.033L252.097 192.137C252.456 192.207 252.804 192.295 253.152 192.383L284.81 200.279C284.462 200.191 284.099 200.106 283.755 200.033Z" fill="#2F009D"/>
<path d="M267.648 201.68C274.539 198.819 282.225 198.644 289.323 201.837C304.587 208.709 311.358 228.538 304.439 246.122L249.125 221.236C252.827 211.845 259.716 204.973 267.648 201.68Z" fill="#4200DD"/>
<path d="M304.443 246.137L272.785 238.241L217.456 213.359L249.129 221.251L304.443 246.137Z" fill="#26007F"/>
<path d="M249.129 221.251L217.471 213.355C217.922 212.215 218.427 211.093 218.962 210.028L250.62 217.924C250.069 218.993 249.576 220.096 249.129 221.251Z" fill="#2C0093"/>
<path d="M250.62 217.924L218.962 210.028C219.618 208.737 220.335 207.495 221.122 206.333L252.78 214.229C251.993 215.391 251.276 216.633 250.62 217.924Z" fill="#2E0098"/>
<path d="M252.775 214.214L221.117 206.318C221.968 205.025 222.898 203.793 223.887 202.659L255.545 210.555C254.545 211.708 253.626 212.921 252.775 214.214Z" fill="#2F009D"/>
<path d="M255.53 210.559L223.872 202.663C225.121 201.218 226.467 199.894 227.897 198.711L259.555 206.607C258.125 207.79 256.794 209.11 255.53 210.559Z" fill="#3100A2"/>
<path d="M259.555 206.607L227.897 198.711C230.395 196.633 233.118 194.984 235.99 193.784L267.648 201.68C264.776 202.88 262.053 204.529 259.555 206.607Z" fill="#3200A7"/>
<path d="M470.721 106.202L528.505 168.699L456.239 198.711L470.721 106.202Z" fill="#4200DD"/>
<path d="M456.239 198.711L424.581 190.815L439.048 98.3103L470.721 106.202L456.239 198.711Z" fill="#2C0092"/>
<path d="M256.659 156.713L225.001 148.817C228.375 147.422 231.903 146.685 235.411 146.684L267.069 154.58C263.561 154.581 260.033 155.318 256.659 156.713Z" fill="#3200A7"/>
<path d="M267.069 154.58L235.411 146.684C237.085 146.688 238.752 146.856 240.399 147.192L272.057 155.088C270.406 154.737 268.739 154.569 267.069 154.58Z" fill="#3100A2"/>
<path d="M272.053 155.073L240.395 147.177C240.72 147.239 241.048 147.316 241.362 147.397L273.02 155.293C272.71 155.227 272.382 155.15 272.053 155.073Z" fill="#2F009D"/>
<path d="M256.659 156.714C263.904 153.713 271.843 153.763 278.874 157.575L249.496 221.351C235.138 213.529 230.049 192.922 238.166 175.32C242.314 166.333 249.092 159.847 256.659 156.714Z" fill="#4200DD"/>
<path d="M249.495 221.351L217.837 213.455C207.055 207.58 201.5 194.501 202.838 180.883L234.496 188.779C233.158 202.397 238.698 215.48 249.495 221.351Z" fill="#280084"/>
<path d="M234.5 188.794L202.842 180.898C203.027 178.982 203.368 177.042 203.827 175.12L235.485 183.016C235.022 184.923 234.681 186.863 234.5 188.794Z" fill="#290089"/>
<path d="M235.482 183.001L203.823 175.105C204.221 173.507 204.698 171.905 205.298 170.337L236.956 178.232C236.36 179.817 235.879 181.403 235.482 183.001Z" fill="#2B008E"/>
<path d="M236.956 178.233L205.283 170.341C205.648 169.369 206.059 168.385 206.492 167.428C206.709 166.949 206.941 166.467 207.177 165.999L238.835 173.895C238.599 174.363 238.367 174.845 238.15 175.324C237.717 176.281 237.321 177.261 236.956 178.233Z" fill="#2C0093"/>
<path d="M238.85 173.891L207.192 165.995C207.912 164.574 208.7 163.233 209.539 161.959L241.197 169.855C240.358 171.129 239.574 172.485 238.85 173.891Z" fill="#2E0098"/>
<path d="M241.197 169.855L209.539 161.959C210.461 160.567 211.467 159.25 212.512 158.02L244.17 165.916C243.125 167.146 242.134 168.459 241.197 169.855Z" fill="#2F009D"/>
<path d="M244.186 165.912L212.528 158.016C213.848 156.471 215.273 155.078 216.768 153.829L248.426 161.725C246.931 162.974 245.51 164.383 244.186 165.912Z" fill="#3100A2"/>
<path d="M248.43 161.741L216.757 153.849C219.323 151.721 222.099 150.026 224.986 148.822L256.644 156.718C253.772 157.918 250.977 159.601 248.43 161.741Z" fill="#3200A7"/>
<path d="M389.41 169.82C403.311 178.573 407.358 199.548 398.441 216.692C394.217 224.821 387.813 230.625 380.793 233.552C373.009 236.79 364.435 236.482 357.134 231.88L389.41 169.82Z" fill="#4200DD"/>
<path d="M364.349 234.961L332.691 227.065C330.207 226.443 327.78 225.416 325.472 223.968L357.13 231.864C359.423 233.316 361.85 234.343 364.349 234.961Z" fill="#280084"/>
<path d="M357.13 231.864L325.457 223.972L357.752 161.924L389.41 169.82L357.13 231.864Z" fill="#3100A3"/>
<path d="M363.648 166.68L331.99 158.784C335.436 157.353 339.089 156.6 342.757 156.59L374.415 164.486C370.747 164.496 367.094 165.249 363.648 166.68Z" fill="#3200A7"/>
<path d="M374.415 164.486L342.757 156.59C344.527 156.586 346.328 156.768 348.097 157.137L379.755 165.033C377.971 164.668 376.188 164.497 374.415 164.486Z" fill="#3100A2"/>
<path d="M379.739 165.037L348.081 157.141C348.44 157.21 348.788 157.299 349.136 157.387L380.794 165.283C380.446 165.195 380.099 165.106 379.739 165.037Z" fill="#2F009D"/>
<path d="M363.648 166.68C370.539 163.819 378.224 163.644 385.322 166.837C400.602 173.705 407.373 193.534 400.454 211.118L345.128 186.251C348.826 176.845 355.716 169.973 363.648 166.68Z" fill="#4200DD"/>
<path d="M400.439 211.122L368.781 203.226L313.459 178.374L345.117 186.27L400.439 211.122Z" fill="#26007F"/>
<path d="M345.117 186.27L313.459 178.374C313.906 177.219 314.415 176.112 314.966 175.043L346.624 182.939C346.073 184.008 345.58 185.111 345.117 186.27Z" fill="#2C0093"/>
<path d="M346.62 182.924L314.962 175.028C315.618 173.737 316.335 172.495 317.117 171.318L348.775 179.214C347.993 180.391 347.276 181.633 346.62 182.924Z" fill="#2E0098"/>
<path d="M348.775 179.214L317.117 171.318C317.983 170.021 318.898 168.793 319.887 167.659L351.545 175.555C350.56 176.704 349.625 177.921 348.775 179.214Z" fill="#2F009D"/>
<path d="M351.545 175.555L319.887 167.659C321.136 166.214 322.482 164.89 323.913 163.707L355.571 171.603C354.14 172.786 352.794 174.11 351.545 175.555Z" fill="#3100A2"/>
<path d="M355.57 171.603L323.912 163.707C326.41 161.629 329.133 159.98 331.99 158.784L363.648 166.68C360.791 167.876 358.053 169.529 355.57 171.603Z" fill="#3200A7"/>
<path d="M352.659 121.714L321.001 113.818C324.375 112.422 327.903 111.685 331.411 111.684L363.069 119.58C359.561 119.581 356.033 120.318 352.659 121.714Z" fill="#3200A7"/>
<path d="M363.069 119.58L331.411 111.684C333.085 111.688 334.753 111.857 336.399 112.193L368.057 120.089C366.407 119.737 364.739 119.569 363.069 119.58Z" fill="#3100A2"/>
<path d="M368.053 120.073L336.395 112.177C336.72 112.239 337.048 112.316 337.362 112.398L369.02 120.293C368.71 120.228 368.382 120.15 368.053 120.073Z" fill="#2F009D"/>
<path d="M352.659 121.713C359.904 118.712 367.843 118.763 374.878 122.59L345.496 186.351C331.142 178.544 326.053 157.937 334.166 140.32C338.314 131.333 345.092 124.847 352.659 121.713Z" fill="#4200DD"/>
<path d="M345.495 186.351L313.837 178.455C303.059 172.595 297.5 159.501 298.842 145.898L330.5 153.794C329.158 167.397 334.717 180.491 345.495 186.351Z" fill="#280084"/>
<path d="M330.515 153.79L298.857 145.894C299.038 143.963 299.379 142.023 299.839 140.101L331.497 147.997C331.022 149.923 330.696 151.859 330.515 153.79Z" fill="#290089"/>
<path d="M331.497 147.997L299.839 140.101C300.236 138.504 300.714 136.901 301.31 135.317L332.968 143.213C332.372 144.797 331.89 146.384 331.497 147.997Z" fill="#2B008E"/>
<path d="M332.967 143.213L301.309 135.317C301.674 134.346 302.074 133.381 302.523 132.42C302.739 131.941 302.971 131.459 303.207 130.991L334.865 138.887C334.629 139.355 334.397 139.837 334.18 140.316C333.732 141.277 333.332 142.242 332.967 143.213Z" fill="#2C0093"/>
<path d="M334.866 138.888L303.208 130.992C303.927 129.57 304.716 128.229 305.555 126.955L337.213 134.851C336.374 136.125 335.585 137.466 334.866 138.888Z" fill="#2E0098"/>
<path d="M337.212 134.851L305.539 126.959C306.461 125.567 307.452 124.254 308.512 123.02L340.17 130.916C339.125 132.146 338.134 133.459 337.212 134.851Z" fill="#2F009D"/>
<path d="M340.185 130.912L308.527 123.016C309.852 121.487 311.273 120.078 312.772 118.845L344.43 126.741C342.931 127.974 341.51 129.383 340.185 130.912Z" fill="#3100A2"/>
<path d="M344.43 126.741L312.757 118.849C315.323 116.721 318.099 115.026 320.986 113.822L352.644 121.718C349.772 122.918 346.992 124.598 344.43 126.741Z" fill="#3200A7"/>
<path d="M106.504 396.143L115.868 392.13L111.74 382.501L118.226 379.721L128.92 404.67L122.434 407.449L118.023 397.159L108.659 401.173L113.07 411.463L106.585 414.243L95.8909 389.294L102.376 386.515L106.504 396.143ZM132.298 383.128L136.397 392.691C137.296 394.786 138.759 395.399 140.789 394.529C142.818 393.659 143.384 392.177 142.486 390.081L138.387 380.519L144.376 377.951L148.971 388.672C149.954 390.966 149.931 393.013 148.9 394.812C147.892 396.603 145.888 398.14 142.888 399.426C139.888 400.712 137.381 401.108 135.367 400.613C133.376 400.109 131.888 398.71 130.905 396.416L126.309 385.695L132.298 383.128ZM161.566 375.753C160.217 375.652 159.013 375.829 157.955 376.283C157.403 376.519 156.998 376.823 156.74 377.195C156.503 377.558 156.466 377.926 156.626 378.301C156.711 378.5 156.804 378.656 156.905 378.769C157.019 378.851 157.187 378.909 157.411 378.944C157.657 378.969 157.975 378.95 158.366 378.887C158.779 378.815 159.311 378.717 159.964 378.594C161.76 378.216 163.251 378.282 164.435 378.792C165.611 379.281 166.482 380.187 167.05 381.51C167.475 382.503 167.66 383.481 167.603 384.446C167.546 385.41 167.283 386.319 166.814 387.173C166.335 388.005 165.66 388.777 164.791 389.49C163.93 390.224 162.905 390.846 161.713 391.357C159.419 392.34 156.879 392.659 154.094 392.312L154.462 387.141C156.63 387.569 158.464 387.462 159.964 386.819C160.516 386.583 160.916 386.268 161.165 385.874C161.414 385.48 161.458 385.095 161.297 384.72C161.203 384.5 161.094 384.337 160.971 384.233C160.861 384.098 160.694 384.013 160.47 383.978C160.237 383.922 159.925 383.925 159.534 383.988C159.156 384.019 158.667 384.098 158.068 384.224C156.055 384.643 154.517 384.65 153.455 384.243C152.405 383.805 151.602 382.936 151.044 381.634C150.637 380.686 150.45 379.761 150.481 378.859C150.503 377.936 150.732 377.068 151.167 376.255C151.601 375.442 152.221 374.693 153.024 374.009C153.85 373.316 154.836 372.724 155.983 372.232C157.858 371.428 159.834 371.012 161.911 370.984L161.566 375.753ZM178.401 368.537C177.052 368.436 175.848 368.613 174.79 369.067C174.238 369.303 173.833 369.607 173.575 369.979C173.338 370.341 173.301 370.71 173.461 371.085C173.547 371.284 173.639 371.44 173.74 371.553C173.854 371.635 174.022 371.693 174.246 371.728C174.492 371.753 174.81 371.734 175.201 371.671C175.614 371.599 176.146 371.501 176.799 371.378C178.595 371 180.086 371.066 181.271 371.576C182.446 372.065 183.317 372.971 183.885 374.294C184.31 375.287 184.495 376.265 184.438 377.23C184.381 378.194 184.118 379.103 183.649 379.957C183.17 380.789 182.495 381.561 181.626 382.274C180.765 383.008 179.74 383.63 178.548 384.141C176.254 385.124 173.714 385.443 170.929 385.096L171.297 379.925C173.465 380.353 175.299 380.246 176.799 379.603C177.351 379.367 177.751 379.052 178 378.658C178.249 378.264 178.293 377.879 178.132 377.504C178.038 377.284 177.929 377.121 177.806 377.017C177.696 376.882 177.529 376.797 177.305 376.762C177.072 376.705 176.76 376.709 176.369 376.772C175.991 376.803 175.502 376.882 174.904 377.008C172.89 377.427 171.352 377.434 170.29 377.027C169.24 376.589 168.437 375.72 167.879 374.418C167.472 373.469 167.285 372.545 167.316 371.643C167.338 370.72 167.567 369.852 168.002 369.039C168.436 368.226 169.056 367.477 169.859 366.793C170.685 366.1 171.671 365.507 172.818 365.016C174.693 364.212 176.669 363.796 178.746 363.767L178.401 368.537ZM191.289 367.83C191.526 368.382 191.847 368.858 192.254 369.258C192.651 369.636 193.09 369.93 193.573 370.142C194.077 370.343 194.603 370.444 195.151 370.444C195.722 370.435 196.283 370.312 196.834 370.075C197.364 369.848 197.817 369.536 198.196 369.139C198.596 368.733 198.886 368.282 199.065 367.787C199.267 367.283 199.368 366.757 199.368 366.208C199.39 365.651 199.287 365.107 199.06 364.578C198.833 364.048 198.51 363.599 198.091 363.23C197.685 362.83 197.229 362.529 196.725 362.328C196.243 362.117 195.717 362.016 195.146 362.025C194.598 362.025 194.059 362.139 193.53 362.366C192.978 362.602 192.502 362.923 192.102 363.33C191.724 363.727 191.434 364.178 191.232 364.682C191.053 365.177 190.963 365.698 190.963 366.247C190.954 366.773 191.062 367.301 191.289 367.83ZM195.217 356.159L201.239 353.578L208.515 370.552L202.493 373.133L201.684 371.247C201.095 373.406 199.709 374.953 197.525 375.889C196.289 376.419 195.059 376.685 193.833 376.689C192.598 376.67 191.419 376.418 190.297 375.932C189.175 375.447 188.157 374.748 187.243 373.834C186.351 372.91 185.627 371.798 185.069 370.497C184.549 369.283 184.267 368.046 184.222 366.786C184.169 365.503 184.342 364.293 184.742 363.156C185.142 362.018 185.761 360.995 186.6 360.088C187.428 359.158 188.472 358.424 189.729 357.885C191.847 356.977 193.917 356.964 195.94 357.846L195.217 356.159ZM211.304 349.264L218.579 366.238L212.59 368.805L205.315 351.831L211.304 349.264ZM202.123 345.482C201.925 345.019 201.829 344.551 201.835 344.079C201.832 343.584 201.918 343.116 202.095 342.675C202.271 342.233 202.52 341.839 202.842 341.493C203.185 341.137 203.589 340.859 204.052 340.661C204.515 340.462 204.983 340.366 205.456 340.372C205.95 340.369 206.418 340.456 206.86 340.632C207.301 340.809 207.699 341.069 208.056 341.412C208.402 341.734 208.675 342.126 208.873 342.589C209.072 343.052 209.173 343.531 209.176 344.026C209.17 344.499 209.078 344.956 208.902 345.397C208.726 345.838 208.466 346.237 208.122 346.593C207.801 346.94 207.408 347.212 206.945 347.411C206.482 347.609 206.003 347.71 205.508 347.713C205.035 347.707 204.578 347.616 204.137 347.439C203.696 347.263 203.302 347.014 202.955 346.693C202.599 346.349 202.322 345.946 202.123 345.482ZM215.396 347.509L221.385 344.942L222.307 347.093C222.698 345.75 223.241 344.734 223.938 344.044C224.625 343.332 225.531 342.734 226.656 342.252C227.847 341.742 228.947 341.505 229.955 341.543C230.976 341.549 231.936 341.778 232.834 342.228C233.565 342.594 234.17 343.092 234.649 343.722C235.128 344.352 235.562 345.119 235.949 346.024L240.573 356.811L234.584 359.378L230.91 350.808C230.551 349.97 230.197 349.325 229.847 348.875C229.51 348.392 229.12 348.063 228.679 347.887C228.301 347.735 227.923 347.676 227.545 347.707C227.166 347.739 226.79 347.835 226.415 347.996C225.4 348.431 224.749 349.075 224.463 349.929C224.189 350.752 224.293 351.725 224.775 352.85L228.661 361.917L222.672 364.484L215.396 347.509ZM262.194 325.57C261.242 325.299 260.357 325.182 259.538 325.22C258.709 325.236 257.963 325.386 257.302 325.669C256.463 326.029 255.865 326.52 255.505 327.144C255.146 327.768 255.104 328.4 255.378 329.04C255.567 329.481 255.855 329.788 256.243 329.962C256.631 330.135 257.081 330.242 257.595 330.283C258.121 330.292 258.682 330.261 259.278 330.188C259.895 330.106 260.507 330.04 261.112 329.99C263.532 329.788 265.483 330.075 266.964 330.85C268.458 331.593 269.611 332.914 270.424 334.811C270.973 336.09 271.249 337.343 271.252 338.569C271.277 339.785 271.031 340.948 270.515 342.057C270.01 343.135 269.237 344.132 268.194 345.05C267.182 345.979 265.916 346.77 264.393 347.423C261.239 348.775 257.914 349.09 254.419 348.369L254.958 341.949C256.297 342.394 257.531 342.622 258.659 342.635C259.787 342.647 260.815 342.455 261.741 342.058C262.8 341.604 263.479 341.026 263.779 340.323C264.1 339.611 264.128 338.946 263.863 338.328C263.703 337.953 263.499 337.662 263.254 337.454C262.998 337.224 262.669 337.064 262.266 336.976C261.853 336.866 261.35 336.82 260.758 336.839C260.187 336.849 259.497 336.883 258.687 336.943C257.736 337.038 256.785 337.106 255.837 337.147C254.901 337.156 254 337.033 253.133 336.778C252.288 336.513 251.497 336.069 250.76 335.445C250.035 334.79 249.408 333.844 248.878 332.609C248.349 331.374 248.07 330.175 248.042 329.012C248.026 327.818 248.231 326.711 248.656 325.694C249.094 324.644 249.757 323.694 250.646 322.843C251.557 321.983 252.674 321.269 253.997 320.701C255.232 320.172 256.599 319.795 258.095 319.571C259.583 319.326 261.086 319.269 262.605 319.401L262.194 325.57ZM279.18 330.157C279.417 330.708 279.738 331.184 280.145 331.584C280.542 331.962 280.982 332.257 281.464 332.468C281.968 332.67 282.494 332.771 283.043 332.771C283.613 332.761 284.174 332.638 284.725 332.402C285.255 332.175 285.709 331.863 286.087 331.466C286.487 331.059 286.777 330.608 286.956 330.114C287.158 329.609 287.259 329.083 287.259 328.535C287.281 327.977 287.178 327.433 286.952 326.904C286.725 326.375 286.402 325.926 285.982 325.557C285.576 325.157 285.12 324.856 284.616 324.654C284.134 324.443 283.608 324.342 283.037 324.352C282.489 324.352 281.95 324.465 281.421 324.692C280.869 324.928 280.393 325.25 279.993 325.657C279.615 326.054 279.325 326.504 279.124 327.008C278.944 327.503 278.854 328.025 278.854 328.573C278.845 329.099 278.954 329.627 279.18 330.157ZM283.108 318.485L289.13 315.904L296.406 332.878L290.384 335.46L289.575 333.574C288.986 335.732 287.6 337.28 285.416 338.216C284.181 338.745 282.95 339.012 281.724 339.015C280.489 338.996 279.31 338.744 278.188 338.259C277.066 337.774 276.048 337.074 275.134 336.16C274.243 335.237 273.518 334.125 272.96 332.823C272.44 331.61 272.158 330.373 272.113 329.112C272.06 327.83 272.233 326.62 272.633 325.482C273.033 324.344 273.653 323.322 274.491 322.414C275.32 321.484 276.363 320.75 277.62 320.211C279.738 319.303 281.808 319.291 283.831 320.173L283.108 318.485ZM294.699 301.101L306.47 328.564L300.481 331.132L288.71 303.668L294.699 301.101ZM309.276 307.269L316.552 324.243L310.563 326.81L303.287 309.836L309.276 307.269ZM300.096 303.488C299.898 303.024 299.801 302.556 299.808 302.084C299.805 301.589 299.891 301.121 300.068 300.68C300.244 300.239 300.493 299.845 300.814 299.498C301.158 299.142 301.561 298.864 302.024 298.666C302.488 298.467 302.956 298.371 303.428 298.377C303.923 298.374 304.391 298.461 304.832 298.637C305.274 298.814 305.672 299.074 306.028 299.417C306.375 299.739 306.648 300.131 306.846 300.594C307.045 301.057 307.146 301.536 307.149 302.031C307.143 302.504 307.051 302.961 306.875 303.402C306.698 303.843 306.438 304.242 306.095 304.598C305.773 304.945 305.381 305.217 304.918 305.416C304.455 305.614 303.976 305.715 303.481 305.719C303.008 305.712 302.551 305.621 302.11 305.444C301.669 305.268 301.275 305.019 300.928 304.698C300.572 304.354 300.295 303.951 300.096 303.488ZM308.873 295.025L314.862 292.458L320.28 305.098C320.67 303.756 321.214 302.739 321.91 302.049C322.597 301.337 323.503 300.74 324.628 300.257C326.768 299.34 328.634 299.246 330.225 299.973C331.829 300.67 333.061 302.022 333.922 304.029L338.546 314.816L332.557 317.383L328.883 308.813C328.514 307.953 328.15 307.286 327.791 306.814C327.432 306.341 327.036 306.027 326.605 305.873C325.877 305.637 325.138 305.679 324.388 306.001C323.373 306.436 322.722 307.08 322.435 307.934C322.161 308.757 322.265 309.73 322.748 310.855L326.634 319.922L320.645 322.489L308.873 295.025ZM353.3 308.492L346.841 281.727L353.26 278.976L363.958 290.136L363.22 274.707L369.639 271.955L384.568 295.089L378.116 297.854L369.81 284.416L370.076 301.301L367.495 302.407L355.747 290.444L359.752 305.726L353.3 308.492ZM389.109 283.037C389.345 283.589 389.667 284.064 390.073 284.465C390.47 284.843 390.91 285.137 391.392 285.348C391.896 285.55 392.423 285.651 392.971 285.651C393.541 285.641 394.102 285.518 394.654 285.282C395.183 285.055 395.637 284.743 396.015 284.346C396.415 283.94 396.705 283.489 396.885 282.994C397.087 282.49 397.187 281.964 397.187 281.415C397.209 280.857 397.107 280.314 396.88 279.784C396.653 279.255 396.33 278.806 395.911 278.437C395.504 278.037 395.049 277.736 394.545 277.535C394.063 277.323 393.536 277.223 392.966 277.232C392.418 277.232 391.879 277.346 391.349 277.573C390.798 277.809 390.322 278.13 389.922 278.537C389.544 278.934 389.254 279.385 389.052 279.889C388.872 280.384 388.783 280.905 388.783 281.454C388.773 281.98 388.882 282.508 389.109 283.037ZM393.036 271.366L399.059 268.785L406.334 285.759L400.312 288.34L399.504 286.454C398.915 288.613 397.528 290.16 395.344 291.096C394.109 291.626 392.878 291.892 391.653 291.895C390.417 291.877 389.239 291.625 388.117 291.139C386.995 290.654 385.977 289.954 385.063 289.041C384.171 288.117 383.446 287.005 382.888 285.703C382.368 284.49 382.086 283.253 382.042 281.993C381.988 280.71 382.162 279.5 382.562 278.362C382.962 277.225 383.581 276.202 384.419 275.294C385.248 274.365 386.291 273.63 387.548 273.091C389.666 272.184 391.737 272.171 393.76 273.053L393.036 271.366ZM398.638 256.549L404.627 253.981L410.045 266.621C410.436 265.279 410.979 264.262 411.676 263.572C412.363 262.86 413.269 262.263 414.394 261.78C416.533 260.863 418.399 260.769 419.99 261.497C421.594 262.193 422.827 263.545 423.687 265.552L428.311 276.339L422.322 278.906L418.648 270.336C418.28 269.476 417.916 268.809 417.556 268.337C417.197 267.864 416.802 267.55 416.37 267.396C415.642 267.16 414.903 267.202 414.153 267.524C413.138 267.959 412.487 268.603 412.201 269.457C411.927 270.28 412.031 271.254 412.513 272.379L416.399 281.445L410.41 284.012L398.638 256.549ZM434.282 263.674C434.519 264.225 434.84 264.701 435.247 265.102C435.644 265.48 436.084 265.774 436.566 265.985C437.07 266.187 437.596 266.288 438.145 266.288C438.715 266.278 439.276 266.155 439.827 265.919C440.357 265.692 440.811 265.38 441.189 264.983C441.589 264.576 441.879 264.126 442.058 263.631C442.26 263.127 442.361 262.6 442.361 262.052C442.383 261.494 442.28 260.951 442.053 260.421C441.827 259.892 441.503 259.443 441.084 259.074C440.678 258.674 440.222 258.373 439.718 258.171C439.236 257.96 438.71 257.859 438.139 257.869C437.591 257.869 437.052 257.982 436.523 258.209C435.993 258.436 435.528 258.753 435.128 259.16C434.75 259.557 434.46 260.007 434.259 260.512C434.079 261.006 433.978 261.533 433.956 262.09C433.947 262.617 434.055 263.145 434.282 263.674ZM433.714 241.514L439.736 238.932L451.508 266.396L445.486 268.977L444.677 267.091C444.088 269.25 442.702 270.797 440.518 271.733C439.283 272.263 438.047 272.518 436.812 272.499C435.577 272.48 434.398 272.228 433.276 271.743C432.154 271.258 431.136 270.558 430.222 269.644C429.33 268.721 428.61 267.62 428.062 266.34C427.542 265.127 427.249 263.895 427.182 262.644C427.129 261.361 427.302 260.151 427.702 259.014C428.102 257.876 428.721 256.853 429.56 255.946C430.41 255.006 431.465 254.267 432.722 253.728C434.84 252.821 436.91 252.808 438.933 253.69L433.714 241.514ZM454.297 245.107L461.572 262.082L455.583 264.649L448.308 247.674L454.297 245.107ZM445.116 241.326C444.918 240.863 444.822 240.395 444.828 239.922C444.825 239.428 444.911 238.96 445.088 238.518C445.264 238.077 445.513 237.683 445.835 237.337C446.178 236.98 446.582 236.703 447.045 236.505C447.508 236.306 447.976 236.21 448.449 236.216C448.943 236.213 449.411 236.3 449.853 236.476C450.294 236.653 450.693 236.912 451.049 237.256C451.395 237.577 451.668 237.97 451.866 238.433C452.065 238.896 452.166 239.375 452.169 239.87C452.163 240.343 452.071 240.8 451.895 241.241C451.719 241.682 451.459 242.081 451.115 242.437C450.794 242.783 450.401 243.056 449.938 243.255C449.475 243.453 448.996 243.554 448.501 243.557C448.028 243.551 447.571 243.46 447.13 243.283C446.689 243.107 446.295 242.858 445.948 242.536C445.592 242.193 445.315 241.789 445.116 241.326Z" fill="#EDEDED"/>
<path d="M133.751 447.488L134.711 449.716C133.232 449.275 131.911 449.305 130.749 449.806C129.468 450.358 128.588 451.283 128.107 452.581C127.619 453.876 127.66 455.186 128.231 456.509C128.795 457.817 129.711 458.73 130.981 459.248C132.251 459.766 133.526 459.749 134.807 459.197C135.468 458.912 135.984 458.562 136.354 458.147C136.566 457.928 136.77 457.668 136.966 457.367C137.166 457.064 137.365 456.717 137.56 456.326L138.538 458.594C137.724 459.666 136.725 460.457 135.541 460.967C133.76 461.735 131.972 461.769 130.177 461.068C128.383 460.355 127.104 459.113 126.341 457.343C125.657 455.756 125.572 454.114 126.085 452.419C126.72 450.34 128.063 448.858 130.113 447.975C131.232 447.492 132.445 447.33 133.751 447.488ZM138.777 454.576C138.288 453.441 138.278 452.3 138.747 451.153C139.216 450.007 140.035 449.182 141.202 448.679C142.375 448.173 143.544 448.145 144.707 448.594C145.86 449.048 146.688 449.859 147.191 451.026C147.699 452.205 147.718 453.367 147.249 454.514C146.772 455.657 145.939 456.485 144.75 456.998C143.572 457.506 142.41 457.528 141.266 457.064C140.126 456.611 139.297 455.782 138.777 454.576ZM140.648 453.808C140.986 454.594 141.464 455.125 142.081 455.401C142.711 455.679 143.378 455.665 144.083 455.362C144.793 455.055 145.262 454.582 145.49 453.941C145.718 453.301 145.668 452.598 145.338 451.834C145.009 451.07 144.533 450.551 143.911 450.277C143.281 450 142.614 450.013 141.909 450.317C141.215 450.616 140.752 451.09 140.521 451.738C140.29 452.387 140.332 453.077 140.648 453.808ZM147.422 446.256L149.238 445.473L149.552 446.2C149.744 445.683 149.936 445.307 150.127 445.071C150.333 444.823 150.635 444.613 151.033 444.441C151.921 444.058 152.79 444.143 153.641 444.695C153.877 443.675 154.482 442.954 155.456 442.535C157.226 441.772 158.574 442.464 159.5 444.611L161.594 449.469L159.77 450.256L157.888 445.889C157.563 445.136 157.242 444.643 156.925 444.409C156.599 444.173 156.222 444.148 155.791 444.333C155.291 444.549 155.006 444.895 154.937 445.371C154.873 445.845 155.021 446.499 155.381 447.333L157.131 451.393L155.307 452.18L153.435 447.837C152.832 446.438 152.127 445.913 151.32 446.261C150.809 446.481 150.517 446.833 150.445 447.317C150.378 447.799 150.522 448.451 150.877 449.275L152.627 453.335L150.811 454.117L147.422 446.256ZM167.756 451.886L165.94 452.669L160.708 440.53L162.524 439.747L162.892 440.602C163.3 439.578 163.958 438.87 164.867 438.478C165.949 438.012 167.011 438.026 168.054 438.521C169.105 439.006 169.89 439.851 170.41 441.056C170.918 442.235 170.989 443.369 170.622 444.458C170.259 445.54 169.545 446.31 168.479 446.77C167.559 447.166 166.577 447.152 165.533 446.728L167.756 451.886ZM168.557 441.865C168.232 441.111 167.763 440.586 167.15 440.289C166.53 439.989 165.904 439.974 165.275 440.245C164.608 440.533 164.167 440.997 163.952 441.639C163.737 442.28 163.792 442.977 164.116 443.731C164.434 444.468 164.903 444.987 165.524 445.287C166.135 445.579 166.774 445.581 167.441 445.293C168.071 445.022 168.488 444.561 168.693 443.912C168.908 443.257 168.863 442.575 168.557 441.865ZM172.435 435.475L174.38 439.986C174.941 441.289 175.736 441.718 176.763 441.275C177.791 440.832 178.024 439.96 177.463 438.657L175.518 434.146L177.334 433.363L179.296 437.915C179.568 438.545 179.724 439.122 179.765 439.646C179.791 440.12 179.689 440.601 179.459 441.09C179.075 441.887 178.41 442.489 177.463 442.897C176.521 443.303 175.629 443.372 174.786 443.104C174.268 442.938 173.842 442.684 173.51 442.343C173.202 442.042 172.892 441.531 172.581 440.81L170.619 436.257L172.435 435.475ZM182.23 433.263L184.888 439.429L183.072 440.212L180.414 434.045L179.639 434.379L178.908 432.684L179.683 432.35L178.441 429.469L180.257 428.686L181.499 431.568L182.912 430.959L183.642 432.654L182.23 433.263ZM193.33 431.637L187.696 434.065C188.023 434.69 188.454 435.113 188.99 435.335C189.523 435.552 190.081 435.535 190.662 435.284C191.114 435.09 191.442 434.821 191.645 434.478C191.843 434.137 192.002 433.597 192.123 432.855L194.025 433.05C193.962 433.556 193.861 434.011 193.723 434.415C193.582 434.814 193.402 435.172 193.182 435.49C192.959 435.803 192.692 436.078 192.379 436.315C192.066 436.552 191.706 436.758 191.297 436.935C190.124 437.44 189.02 437.469 187.985 437.022C186.947 436.57 186.159 435.716 185.618 434.463C185.082 433.22 184.993 432.065 185.35 430.999C185.717 429.941 186.474 429.165 187.62 428.671C188.777 428.172 189.85 428.147 190.841 428.594C191.823 429.038 192.594 429.909 193.153 431.205L193.33 431.637ZM190.825 430.955C190.155 430.096 189.335 429.875 188.367 430.292C188.146 430.387 187.954 430.511 187.79 430.665C187.624 430.813 187.489 430.986 187.383 431.185C187.28 431.376 187.211 431.585 187.174 431.811C187.138 432.037 187.139 432.276 187.177 432.528L190.825 430.955ZM193.444 426.419L195.26 425.636L195.563 426.338C195.746 425.845 195.939 425.478 196.141 425.237C196.347 424.989 196.63 424.787 196.991 424.632C197.47 424.425 198.037 424.366 198.694 424.453L198.579 426.474C198.128 426.375 197.738 426.396 197.41 426.538C196.42 426.964 196.247 427.926 196.892 429.421L198.649 433.497L196.833 434.28L193.444 426.419ZM210.938 415.624L209.803 417.186C209.304 416.814 208.893 416.608 208.57 416.569C208.227 416.512 207.842 416.576 207.417 416.759C206.895 416.984 206.526 417.319 206.309 417.763C206.09 418.202 206.076 418.642 206.266 419.083C206.528 419.692 207.191 419.986 208.255 419.968L209.717 419.941C210.905 419.914 211.861 420.095 212.584 420.485C213.305 420.87 213.85 421.49 214.218 422.346C214.712 423.492 214.739 424.603 214.297 425.681C213.852 426.766 213.059 427.554 211.919 428.046C210.837 428.512 209.806 428.577 208.825 428.24C207.855 427.899 207.033 427.185 206.36 426.097L208.084 424.856C208.485 425.55 208.854 425.991 209.19 426.178C209.809 426.549 210.49 426.575 211.233 426.255C211.819 426.002 212.222 425.596 212.44 425.036C212.658 424.476 212.637 423.895 212.377 423.292C212.273 423.05 212.143 422.845 211.987 422.676C211.834 422.499 211.649 422.359 211.432 422.254C211.218 422.143 210.967 422.063 210.678 422.015C210.387 421.962 210.057 421.935 209.687 421.935L208.268 421.953C206.252 421.967 204.944 421.28 204.346 419.892C203.942 418.956 203.963 418.018 204.407 417.08C204.849 416.137 205.603 415.436 206.668 414.976C208.105 414.357 209.528 414.573 210.938 415.624ZM220.629 415.103L221.669 417.517C221.037 417.189 220.516 417.002 220.107 416.955C219.7 416.901 219.279 416.968 218.843 417.155C218.16 417.45 217.696 417.934 217.45 418.608C217.204 419.282 217.237 419.979 217.548 420.7C217.866 421.437 218.344 421.949 218.984 422.234C219.63 422.517 220.294 422.512 220.977 422.217C221.413 422.029 221.757 421.769 222.01 421.437C222.254 421.115 222.48 420.597 222.689 419.881L223.722 422.279C223.149 422.978 222.495 423.487 221.757 423.805C220.541 424.329 219.355 424.375 218.199 423.942C217.04 423.503 216.208 422.697 215.702 421.524C215.196 420.351 215.184 419.183 215.665 418.018C216.145 416.854 216.988 416.012 218.194 415.493C218.969 415.159 219.78 415.029 220.629 415.103ZM224.059 413.223L227.447 421.084L225.631 421.867L222.243 414.006L224.059 413.223ZM220.559 410.855C220.422 410.538 220.42 410.214 220.551 409.882C220.683 409.551 220.91 409.316 221.233 409.177C221.561 409.036 221.891 409.031 222.222 409.162C222.551 409.289 222.786 409.516 222.927 409.844C223.069 410.172 223.074 410.502 222.942 410.833C222.816 411.162 222.589 411.397 222.26 411.538C221.932 411.68 221.603 411.685 221.271 411.553C220.94 411.422 220.703 411.189 220.559 410.855ZM235.397 413.504L229.763 415.932C230.09 416.557 230.521 416.981 231.057 417.203C231.591 417.419 232.148 417.402 232.729 417.152C233.181 416.957 233.509 416.688 233.712 416.346C233.91 416.005 234.069 415.464 234.19 414.723L236.092 414.918C236.029 415.423 235.929 415.878 235.79 416.282C235.649 416.681 235.469 417.04 235.249 417.358C235.026 417.671 234.759 417.946 234.446 418.182C234.134 418.419 233.773 418.626 233.364 418.802C232.191 419.308 231.087 419.337 230.052 418.89C229.015 418.437 228.226 417.584 227.685 416.33C227.15 415.087 227.06 413.933 227.417 412.866C227.784 411.809 228.541 411.033 229.687 410.539C230.844 410.04 231.918 410.014 232.908 410.461C233.891 410.906 234.661 411.776 235.22 413.073L235.397 413.504ZM232.892 412.823C232.222 411.963 231.402 411.742 230.434 412.16C230.213 412.255 230.021 412.379 229.857 412.532C229.692 412.68 229.556 412.854 229.45 413.053C229.347 413.244 229.278 413.452 229.241 413.679C229.205 413.905 229.206 414.144 229.244 414.395L232.892 412.823ZM235.512 408.286L237.336 407.5L237.649 408.227C238.012 407.323 238.592 406.7 239.389 406.357C240.303 405.963 241.14 405.943 241.9 406.299C242.552 406.598 243.117 407.302 243.595 408.41L245.672 413.229L243.848 414.015L241.955 409.624C241.621 408.85 241.283 408.361 240.94 408.157C240.6 407.947 240.153 407.961 239.599 408.199C238.996 408.459 238.654 408.843 238.573 409.35C238.495 409.849 238.667 410.589 239.089 411.568L240.724 415.362L238.9 416.148L235.512 408.286ZM249.729 403.747L248.573 405.193C248.127 404.811 247.729 404.695 247.38 404.846C247.213 404.918 247.095 405.036 247.025 405.2C246.953 405.358 246.954 405.524 247.028 405.696C247.158 405.997 247.637 406.145 248.464 406.139C249.606 406.139 250.419 406.241 250.903 406.447C251.387 406.653 251.757 407.052 252.012 407.644C252.339 408.403 252.333 409.158 251.994 409.911C251.659 410.629 251.107 411.154 250.338 411.486C249.019 412.054 247.809 411.813 246.705 410.764L247.945 409.378C248.323 409.662 248.59 409.83 248.747 409.884C249.056 409.993 249.364 409.982 249.671 409.85C250.284 409.585 250.47 409.173 250.229 408.614C250.09 408.291 249.723 408.091 249.129 408.016C248.907 408.003 248.685 407.993 248.465 407.986C248.245 407.979 248.021 407.97 247.794 407.96C247.155 407.929 246.672 407.83 246.346 407.665C245.93 407.455 245.611 407.092 245.388 406.575C245.093 405.892 245.084 405.226 245.36 404.578C245.646 403.925 246.131 403.451 246.814 403.156C247.82 402.722 248.792 402.919 249.729 403.747ZM260.337 402.754L254.703 405.182C255.03 405.807 255.461 406.231 255.997 406.453C256.531 406.669 257.088 406.652 257.669 406.402C258.121 406.207 258.449 405.938 258.652 405.595C258.85 405.255 259.009 404.714 259.13 403.973L261.032 404.168C260.969 404.673 260.869 405.128 260.73 405.532C260.589 405.931 260.409 406.29 260.189 406.608C259.966 406.921 259.699 407.196 259.386 407.432C259.074 407.669 258.713 407.876 258.304 408.052C257.131 408.558 256.027 408.587 254.992 408.14C253.955 407.687 253.166 406.834 252.625 405.58C252.09 404.337 252 403.183 252.357 402.116C252.724 401.058 253.481 400.283 254.627 399.789C255.784 399.29 256.858 399.264 257.848 399.711C258.831 400.156 259.601 401.026 260.16 402.323L260.337 402.754ZM257.832 402.073C257.162 401.213 256.342 400.992 255.374 401.41C255.153 401.505 254.961 401.629 254.797 401.782C254.632 401.93 254.496 402.104 254.39 402.303C254.287 402.494 254.218 402.702 254.181 402.929C254.145 403.155 254.146 403.394 254.184 403.645L257.832 402.073ZM271.555 389.391L266.559 391.544L267.85 394.539L272.701 392.448L273.463 394.216L268.612 396.306L270.407 400.471L275.403 398.318L276.165 400.085L269.288 403.049L263.917 390.587L270.793 387.623L271.555 389.391ZM278.207 383.04L280.031 382.254L285.907 395.886L284.083 396.672L283.728 395.849C283.314 396.857 282.655 397.556 281.751 397.946C280.675 398.409 279.612 398.402 278.563 397.922C277.513 397.424 276.729 396.575 276.212 395.376C275.706 394.202 275.636 393.071 276.003 391.982C276.361 390.889 277.07 390.115 278.13 389.658C279.051 389.261 280.036 389.283 281.087 389.723L278.207 383.04ZM278.068 394.575C278.393 395.329 278.859 395.855 279.467 396.155C280.087 396.455 280.712 396.469 281.342 396.198C282.015 395.908 282.458 395.443 282.673 394.801C282.881 394.144 282.826 393.446 282.508 392.709C282.191 391.972 281.721 391.453 281.101 391.153C280.485 390.863 279.846 390.861 279.184 391.147C278.56 391.416 278.14 391.877 277.924 392.532C277.716 393.189 277.764 393.87 278.068 394.575ZM286.627 386.254L288.571 390.766C289.133 392.068 289.927 392.498 290.955 392.055C291.983 391.612 292.216 390.739 291.654 389.437L289.71 384.925L291.526 384.142L293.488 388.694C293.759 389.324 293.915 389.901 293.957 390.426C293.982 390.9 293.88 391.381 293.65 391.869C293.266 392.666 292.601 393.269 291.654 393.677C290.712 394.083 289.82 394.152 288.977 393.883C288.459 393.717 288.034 393.464 287.701 393.122C287.393 392.821 287.083 392.31 286.773 391.589L284.811 387.037L286.627 386.254ZM300.082 380.856L301.122 383.27C300.49 382.942 299.969 382.755 299.56 382.708C299.153 382.654 298.732 382.721 298.296 382.908C297.613 383.203 297.149 383.687 296.903 384.361C296.657 385.035 296.69 385.732 297.001 386.453C297.319 387.19 297.797 387.701 298.437 387.987C299.083 388.27 299.747 388.265 300.43 387.97C300.866 387.782 301.21 387.522 301.463 387.19C301.707 386.868 301.933 386.35 302.142 385.634L303.175 388.032C302.602 388.731 301.948 389.24 301.21 389.558C299.994 390.082 298.808 390.128 297.652 389.694C296.493 389.256 295.66 388.45 295.155 387.277C294.649 386.104 294.637 384.936 295.118 383.771C295.598 382.607 296.441 381.765 297.647 381.246C298.421 380.912 299.233 380.782 300.082 380.856ZM307.491 377.261L309.315 376.475L312.703 384.336L310.879 385.122L310.524 384.299C310.078 385.321 309.424 386.017 308.563 386.388C307.476 386.857 306.408 386.852 305.36 386.372C304.309 385.874 303.525 385.025 303.008 383.825C302.5 382.647 302.429 381.513 302.796 380.424C303.162 379.334 303.875 378.561 304.935 378.104C305.85 377.71 306.833 377.733 307.884 378.173L307.491 377.261ZM304.864 383.025C305.189 383.778 305.655 384.305 306.263 384.604C306.884 384.905 307.509 384.919 308.138 384.648C308.811 384.358 309.255 383.892 309.47 383.251C309.677 382.594 309.623 381.896 309.305 381.159C308.987 380.422 308.518 379.903 307.897 379.603C307.281 379.313 306.642 379.311 305.98 379.596C305.356 379.865 304.936 380.327 304.72 380.982C304.513 381.639 304.561 382.32 304.864 383.025ZM314.21 376.374L316.868 382.541L315.052 383.324L312.394 377.157L311.619 377.491L310.889 375.796L311.663 375.462L310.421 372.581L312.237 371.798L313.479 374.68L314.892 374.071L315.622 375.766L314.21 376.374ZM317.538 377.524C317.049 376.389 317.039 375.248 317.508 374.101C317.977 372.954 318.796 372.13 319.964 371.626C321.137 371.121 322.305 371.092 323.468 371.542C324.621 371.995 325.449 372.806 325.952 373.974C326.46 375.152 326.479 376.315 326.01 377.461C325.533 378.605 324.7 379.433 323.511 379.945C322.333 380.453 321.171 380.475 320.027 380.012C318.888 379.558 318.058 378.729 317.538 377.524ZM319.409 376.756C319.747 377.542 320.225 378.073 320.842 378.349C321.472 378.626 322.139 378.613 322.844 378.309C323.554 378.003 324.023 377.53 324.251 376.889C324.479 376.248 324.429 375.546 324.099 374.782C323.77 374.018 323.294 373.499 322.672 373.225C322.042 372.948 321.375 372.961 320.67 373.265C319.976 373.564 319.513 374.038 319.282 374.686C319.051 375.334 319.093 376.024 319.409 376.756ZM326.184 369.204L328 368.421L328.302 369.123C328.485 368.629 328.678 368.262 328.88 368.022C329.086 367.774 329.369 367.572 329.73 367.417C330.209 367.21 330.776 367.151 331.433 367.238L331.318 369.259C330.867 369.16 330.477 369.181 330.149 369.322C329.159 369.749 328.986 370.71 329.631 372.206L331.388 376.282L329.572 377.065L326.184 369.204ZM135.633 472.017L138.868 479.523C139.33 480.594 139.842 481.301 140.405 481.646C141.236 482.136 142.125 482.178 143.072 481.769C144.024 481.359 144.607 480.683 144.82 479.743C144.964 479.113 144.801 478.255 144.333 477.168L141.097 469.662L142.978 468.851L146.436 476.874C147.002 478.187 147.059 479.444 146.608 480.647C146.096 481.991 145.17 482.951 143.83 483.529C142.49 484.106 141.159 484.119 139.836 483.566C138.652 483.068 137.776 482.163 137.211 480.85L133.752 472.827L135.633 472.017ZM147.853 466.75L153.224 479.212L151.344 480.022L145.972 467.56L147.853 466.75ZM155.796 461.775L157.583 461.79L157.566 481.379L155.792 481.349L155.796 461.775ZM161.299 460.954L164.535 468.46C164.996 469.531 165.509 470.238 166.072 470.583C166.902 471.073 167.791 471.114 168.738 470.706C169.69 470.296 170.273 469.62 170.487 468.68C170.63 468.05 170.468 467.192 169.999 466.105L166.764 458.598L168.644 457.788L172.102 465.811C172.668 467.124 172.726 468.381 172.274 469.584C171.762 470.928 170.836 471.888 169.496 472.466C168.157 473.043 166.825 473.056 165.502 472.503C164.318 472.005 163.443 471.1 162.877 469.787L159.419 461.764L161.299 460.954ZM176.81 461.322L170.815 456.852L172.954 455.93L177.155 459.125L177.837 453.825L179.992 452.896L178.965 460.393L185.541 465.282L183.435 466.19L178.618 462.61L177.833 468.604L175.703 469.523L176.81 461.322ZM192.329 462.356L186.958 449.894L189.573 448.767C190.827 448.226 191.87 447.923 192.703 447.858C193.588 447.764 194.473 447.87 195.358 448.178C197.15 448.796 198.457 450.061 199.281 451.971C200.106 453.887 200.104 455.725 199.275 457.486C198.857 458.368 198.33 459.084 197.692 459.633C197.103 460.161 196.177 460.698 194.912 461.243L192.329 462.356ZM193.448 459.778L194.296 459.412C195.14 459.048 195.804 458.657 196.287 458.238C196.766 457.809 197.143 457.292 197.419 456.688C197.98 455.444 197.968 454.145 197.384 452.789C196.795 451.422 195.86 450.511 194.578 450.055C193.428 449.651 192.051 449.795 190.448 450.486L189.6 450.851L193.448 459.778ZM209.642 450.74L204.008 453.168C204.335 453.793 204.766 454.217 205.302 454.439C205.835 454.655 206.393 454.638 206.974 454.388C207.426 454.193 207.754 453.924 207.957 453.581C208.155 453.241 208.314 452.7 208.435 451.959L210.337 452.154C210.274 452.659 210.173 453.114 210.035 453.518C209.894 453.917 209.714 454.276 209.494 454.594C209.271 454.907 209.004 455.181 208.691 455.418C208.378 455.655 208.018 455.862 207.609 456.038C206.436 456.544 205.332 456.573 204.297 456.126C203.259 455.673 202.471 454.82 201.93 453.566C201.394 452.323 201.305 451.169 201.662 450.102C202.029 449.044 202.786 448.269 203.932 447.774C205.089 447.276 206.162 447.25 207.153 447.697C208.135 448.142 208.906 449.012 209.465 450.309L209.642 450.74ZM207.137 450.059C206.467 449.199 205.647 448.978 204.679 449.396C204.458 449.491 204.266 449.615 204.102 449.768C203.936 449.916 203.801 450.09 203.695 450.289C203.592 450.48 203.523 450.688 203.486 450.914C203.45 451.141 203.451 451.38 203.489 451.631L207.137 450.059ZM214.902 444.893L213.745 446.339C213.3 445.957 212.902 445.841 212.553 445.992C212.386 446.064 212.268 446.182 212.198 446.346C212.126 446.505 212.127 446.67 212.201 446.842C212.331 447.143 212.81 447.291 213.637 447.286C214.778 447.285 215.591 447.387 216.076 447.593C216.56 447.799 216.93 448.198 217.185 448.79C217.512 449.549 217.506 450.304 217.167 451.057C216.832 451.775 216.28 452.3 215.51 452.632C214.192 453.2 212.981 452.96 211.878 451.91L213.118 450.524C213.496 450.808 213.763 450.977 213.92 451.03C214.229 451.139 214.537 451.128 214.843 450.996C215.457 450.731 215.643 450.319 215.402 449.76C215.263 449.437 214.896 449.238 214.302 449.162C214.079 449.149 213.858 449.139 213.638 449.132C213.418 449.125 213.194 449.116 212.966 449.106C212.328 449.075 211.845 448.977 211.519 448.811C211.103 448.601 210.783 448.238 210.561 447.721C210.266 447.038 210.257 446.372 210.532 445.724C210.819 445.071 211.304 444.597 211.987 444.302C212.993 443.869 213.965 444.066 214.902 444.893ZM218.288 441.845L221.676 449.706L219.86 450.489L216.472 442.628L218.288 441.845ZM214.788 439.477C214.651 439.16 214.649 438.836 214.781 438.504C214.912 438.173 215.139 437.938 215.462 437.799C215.79 437.658 216.12 437.653 216.451 437.784C216.78 437.911 217.015 438.138 217.157 438.466C217.298 438.794 217.303 439.124 217.171 439.455C217.045 439.784 216.818 440.019 216.49 440.16C216.161 440.302 215.832 440.307 215.501 440.175C215.17 440.044 214.932 439.811 214.788 439.477ZM231.5 445.252C231.66 445.623 231.787 445.955 231.88 446.246C231.982 446.541 232.057 446.805 232.107 447.038C232.233 447.686 232.199 448.304 232.006 448.891C231.648 450.015 230.848 450.845 229.605 451.381C228.555 451.833 227.57 451.923 226.649 451.65C225.699 451.37 224.948 450.74 224.398 449.758L226.222 448.972C226.459 449.329 226.703 449.578 226.955 449.719C227.543 450.046 228.197 450.054 228.918 449.743C230.247 449.17 230.56 448.069 229.858 446.438L229.384 445.341C228.981 446.389 228.309 447.116 227.367 447.521C226.296 447.983 225.252 447.974 224.235 447.493C223.207 447.005 222.44 446.171 221.932 444.993C221.438 443.847 221.338 442.735 221.633 441.657C221.955 440.51 222.681 439.693 223.811 439.206C224.801 438.779 225.784 438.793 226.758 439.247L226.375 438.359L228.191 437.576L231.5 445.252ZM228.149 442.275C227.82 441.511 227.352 440.988 226.746 440.707C226.13 440.417 225.499 440.412 224.853 440.69C224.164 440.987 223.731 441.477 223.553 442.16C223.39 442.772 223.465 443.442 223.778 444.168C224.086 444.884 224.519 445.393 225.077 445.695C225.686 446.026 226.337 446.042 227.031 445.743C227.725 445.443 228.165 444.954 228.35 444.274C228.525 443.657 228.457 442.99 228.149 442.275ZM230.483 436.588L232.307 435.802L232.621 436.529C232.984 435.625 233.564 435.002 234.36 434.659C235.275 434.264 236.112 434.245 236.872 434.6C237.524 434.9 238.089 435.604 238.567 436.712L240.644 441.531L238.82 442.317L236.927 437.926C236.593 437.152 236.255 436.663 235.912 436.459C235.572 436.248 235.125 436.262 234.571 436.501C233.968 436.761 233.626 437.145 233.545 437.652C233.467 438.151 233.639 438.891 234.061 439.87L235.696 443.663L233.872 444.45L230.483 436.588ZM248.593 433.951L242.959 436.379C243.286 437.004 243.718 437.427 244.254 437.649C244.787 437.866 245.345 437.849 245.926 437.598C246.378 437.404 246.705 437.135 246.908 436.792C247.106 436.451 247.265 435.911 247.386 435.169L249.289 435.364C249.226 435.87 249.125 436.325 248.987 436.729C248.846 437.128 248.666 437.486 248.445 437.804C248.223 438.117 247.955 438.392 247.643 438.629C247.33 438.866 246.969 439.072 246.56 439.248C245.387 439.754 244.283 439.783 243.248 439.336C242.211 438.884 241.422 438.03 240.882 436.777C240.346 435.534 240.257 434.379 240.614 433.313C240.981 432.255 241.738 431.479 242.884 430.985C244.04 430.486 245.114 430.461 246.104 430.908C247.087 431.352 247.858 432.223 248.417 433.519L248.593 433.951ZM246.089 433.269C245.418 432.41 244.599 432.189 243.63 432.606C243.41 432.701 243.218 432.825 243.054 432.979C242.888 433.127 242.752 433.3 242.646 433.499C242.544 433.69 242.474 433.899 242.438 434.125C242.401 434.351 242.402 434.59 242.44 434.842L246.089 433.269ZM248.708 428.733L250.524 427.95L250.827 428.652C251.01 428.159 251.202 427.792 251.405 427.551C251.611 427.303 251.894 427.101 252.254 426.946C252.733 426.739 253.301 426.68 253.957 426.767L253.843 428.788C253.392 428.689 253.002 428.71 252.674 428.852C251.684 429.278 251.511 430.24 252.156 431.735L253.913 435.811L252.097 436.594L248.708 428.733ZM257.734 431.398L259.619 431.332L259.306 436.932L257.86 436.953L257.734 431.398ZM268.166 429.668L262.795 417.206L265.41 416.078C266.664 415.538 267.707 415.235 268.54 415.169C269.425 415.075 270.31 415.182 271.195 415.489C272.987 416.108 274.294 417.372 275.118 419.283C275.943 421.198 275.941 423.037 275.112 424.798C274.694 425.68 274.167 426.395 273.529 426.944C272.94 427.473 272.014 428.009 270.749 428.554L268.166 429.668ZM269.285 427.089L270.133 426.724C270.977 426.36 271.641 425.968 272.124 425.55C272.603 425.12 272.98 424.603 273.256 424C273.817 422.756 273.805 421.456 273.221 420.1C272.632 418.733 271.697 417.822 270.415 417.366C269.265 416.962 267.888 417.106 266.285 417.797L265.437 418.163L269.285 427.089ZM285.479 418.052L279.845 420.48C280.172 421.105 280.603 421.528 281.139 421.75C281.673 421.967 282.23 421.95 282.811 421.699C283.263 421.505 283.591 421.236 283.794 420.893C283.992 420.553 284.151 420.012 284.272 419.271L286.174 419.465C286.111 419.971 286.011 420.426 285.872 420.83C285.731 421.229 285.551 421.587 285.331 421.905C285.108 422.218 284.841 422.493 284.528 422.73C284.215 422.967 283.855 423.173 283.446 423.35C282.273 423.855 281.169 423.884 280.134 423.437C279.096 422.985 278.308 422.132 277.767 420.878C277.231 419.635 277.142 418.48 277.499 417.414C277.866 416.356 278.623 415.58 279.769 415.086C280.926 414.587 282 414.562 282.99 415.009C283.973 415.453 284.743 416.324 285.302 417.62L285.479 418.052ZM282.974 417.37C282.304 416.511 281.484 416.29 280.516 416.707C280.295 416.802 280.103 416.926 279.939 417.08C279.773 417.228 279.638 417.401 279.532 417.6C279.429 417.791 279.36 418 279.323 418.226C279.287 418.452 279.288 418.691 279.326 418.943L282.974 417.37ZM286.28 412.538L290.217 416.076L290.339 410.788L292.381 409.908L291.919 420.071L284.246 413.415L286.28 412.538ZM302.364 410.774L296.73 413.202C297.057 413.827 297.488 414.25 298.024 414.472C298.558 414.689 299.115 414.672 299.696 414.421C300.148 414.227 300.476 413.958 300.679 413.615C300.877 413.275 301.036 412.734 301.157 411.993L303.059 412.187C302.996 412.693 302.896 413.148 302.757 413.552C302.616 413.951 302.436 414.309 302.216 414.627C301.993 414.94 301.726 415.215 301.413 415.452C301.1 415.689 300.74 415.895 300.331 416.072C299.158 416.577 298.054 416.606 297.019 416.159C295.981 415.707 295.193 414.854 294.652 413.6C294.116 412.357 294.027 411.202 294.384 410.136C294.751 409.078 295.508 408.302 296.654 407.808C297.811 407.309 298.884 407.284 299.875 407.731C300.857 408.175 301.628 409.046 302.187 410.342L302.364 410.774ZM299.859 410.092C299.189 409.233 298.369 409.012 297.401 409.429C297.18 409.524 296.988 409.648 296.824 409.802C296.658 409.95 296.523 410.123 296.417 410.322C296.314 410.513 296.245 410.722 296.208 410.948C296.172 411.174 296.173 411.413 296.211 411.665L299.859 410.092ZM301.807 399.002L307.683 412.634L305.867 413.417L299.991 399.785L301.807 399.002ZM307.893 407.816C307.404 406.68 307.394 405.54 307.863 404.393C308.332 403.246 309.151 402.421 310.319 401.918C311.492 401.413 312.66 401.384 313.823 401.834C314.976 402.287 315.804 403.098 316.307 404.266C316.815 405.444 316.835 406.607 316.365 407.753C315.888 408.897 315.055 409.725 313.866 410.237C312.688 410.745 311.526 410.767 310.382 410.303C309.243 409.85 308.413 409.021 307.893 407.816ZM309.764 407.048C310.102 407.834 310.58 408.365 311.197 408.641C311.827 408.918 312.494 408.905 313.199 408.601C313.909 408.295 314.379 407.822 314.606 407.181C314.834 406.54 314.784 405.838 314.454 405.074C314.125 404.31 313.649 403.791 313.027 403.517C312.397 403.239 311.73 403.253 311.025 403.557C310.331 403.856 309.868 404.33 309.637 404.978C309.406 405.626 309.448 406.316 309.764 407.048ZM323.587 410.852L321.771 411.635L316.539 399.496L318.355 398.713L318.723 399.568C319.13 398.544 319.789 397.836 320.698 397.444C321.78 396.978 322.842 396.992 323.885 397.487C324.936 397.972 325.721 398.817 326.241 400.022C326.749 401.201 326.819 402.335 326.453 403.424C326.09 404.506 325.376 405.276 324.31 405.736C323.39 406.132 322.408 406.118 321.364 405.694L323.587 410.852ZM324.388 400.831C324.063 400.077 323.594 399.552 322.981 399.255C322.36 398.954 321.735 398.94 321.106 399.211C320.438 399.499 319.997 399.963 319.783 400.605C319.568 401.246 319.623 401.943 319.947 402.697C320.265 403.434 320.734 403.953 321.355 404.253C321.966 404.545 322.605 404.547 323.272 404.259C323.902 403.988 324.319 403.527 324.524 402.878C324.739 402.223 324.694 401.541 324.388 400.831ZM335.488 396.496L329.854 398.924C330.181 399.549 330.612 399.972 331.148 400.194C331.682 400.411 332.239 400.394 332.82 400.144C333.272 399.949 333.6 399.68 333.803 399.337C334.001 398.997 334.16 398.456 334.281 397.715L336.183 397.909C336.12 398.415 336.02 398.87 335.881 399.274C335.741 399.673 335.56 400.031 335.34 400.35C335.118 400.662 334.85 400.937 334.537 401.174C334.225 401.411 333.864 401.618 333.455 401.794C332.282 402.299 331.178 402.329 330.143 401.882C329.106 401.429 328.317 400.576 327.776 399.322C327.241 398.079 327.151 396.924 327.508 395.858C327.876 394.8 328.632 394.024 329.778 393.53C330.935 393.032 332.009 393.006 332.999 393.453C333.982 393.897 334.752 394.768 335.311 396.065L335.488 396.496ZM332.983 395.814C332.313 394.955 331.493 394.734 330.525 395.151C330.304 395.246 330.112 395.371 329.949 395.524C329.783 395.672 329.647 395.846 329.541 396.044C329.438 396.235 329.369 396.444 329.332 396.67C329.296 396.897 329.297 397.135 329.335 397.387L332.983 395.814ZM335.603 391.278L337.419 390.495L337.721 391.198C337.904 390.704 338.097 390.337 338.3 390.097C338.505 389.848 338.788 389.647 339.149 389.491C339.628 389.285 340.195 389.225 340.852 389.312L340.737 391.333C340.286 391.234 339.897 391.255 339.568 391.397C338.578 391.824 338.406 392.785 339.05 394.281L340.807 398.357L338.991 399.14L335.603 391.278ZM344.628 393.944L346.514 393.878L346.2 399.478L344.754 399.498L344.628 393.944ZM150.556 500.199L156.703 503.847L154.403 504.838L148.645 501.271L148.306 501.418L150.504 506.519L148.624 507.329L143.252 494.867L145.456 493.917C147.102 493.208 148.425 493.005 149.423 493.308C150.527 493.649 151.323 494.384 151.81 495.514C152.19 496.397 152.264 497.264 152.032 498.117C151.8 498.97 151.308 499.664 150.556 500.199ZM147.6 499.779L148.197 499.522C149.978 498.754 150.575 497.689 149.988 496.328C149.439 495.053 148.297 494.789 146.565 495.535L145.895 495.824L147.6 499.779ZM163.612 496.715L157.978 499.144C158.305 499.768 158.736 500.192 159.272 500.414C159.806 500.63 160.363 500.613 160.944 500.363C161.396 500.168 161.724 499.899 161.927 499.557C162.125 499.216 162.284 498.675 162.405 497.934L164.307 498.129C164.244 498.634 164.144 499.089 164.005 499.493C163.864 499.892 163.684 500.251 163.464 500.569C163.241 500.882 162.974 501.157 162.661 501.393C162.348 501.63 161.988 501.837 161.579 502.013C160.406 502.519 159.302 502.548 158.267 502.101C157.229 501.648 156.441 500.795 155.9 499.541C155.364 498.298 155.275 497.144 155.632 496.077C155.999 495.02 156.756 494.244 157.902 493.75C159.059 493.251 160.132 493.225 161.123 493.673C162.105 494.117 162.876 494.987 163.435 496.284L163.612 496.715ZM161.107 496.034C160.437 495.174 159.617 494.953 158.649 495.371C158.428 495.466 158.236 495.59 158.072 495.743C157.906 495.892 157.771 496.065 157.665 496.264C157.562 496.455 157.493 496.663 157.456 496.89C157.42 497.116 157.421 497.355 157.459 497.606L161.107 496.034ZM168.872 490.868L167.715 492.314C167.27 491.932 166.872 491.816 166.523 491.967C166.356 492.039 166.238 492.157 166.168 492.321C166.096 492.48 166.097 492.645 166.171 492.817C166.301 493.119 166.78 493.266 167.607 493.261C168.748 493.26 169.561 493.363 170.046 493.569C170.53 493.775 170.9 494.173 171.155 494.765C171.482 495.524 171.476 496.28 171.137 497.032C170.802 497.75 170.25 498.276 169.48 498.607C168.162 499.175 166.951 498.935 165.848 497.885L167.088 496.499C167.466 496.783 167.733 496.952 167.89 497.005C168.199 497.115 168.507 497.103 168.813 496.971C169.427 496.707 169.613 496.295 169.372 495.735C169.233 495.412 168.866 495.213 168.272 495.137C168.049 495.125 167.828 495.115 167.608 495.107C167.388 495.1 167.164 495.091 166.936 495.081C166.298 495.05 165.815 494.952 165.489 494.786C165.073 494.576 164.753 494.213 164.531 493.697C164.236 493.013 164.227 492.347 164.502 491.699C164.789 491.046 165.274 490.572 165.957 490.278C166.963 489.844 167.935 490.041 168.872 490.868ZM179.48 489.876L173.846 492.304C174.173 492.929 174.604 493.352 175.14 493.574C175.674 493.791 176.231 493.774 176.812 493.523C177.264 493.329 177.592 493.06 177.795 492.717C177.993 492.376 178.152 491.836 178.273 491.094L180.175 491.289C180.112 491.795 180.012 492.25 179.873 492.654C179.732 493.053 179.552 493.411 179.332 493.729C179.109 494.042 178.842 494.317 178.529 494.554C178.216 494.791 177.856 494.997 177.447 495.173C176.274 495.679 175.17 495.708 174.135 495.261C173.097 494.809 172.309 493.955 171.768 492.702C171.232 491.459 171.143 490.304 171.5 489.238C171.867 488.18 172.624 487.404 173.77 486.91C174.927 486.411 176 486.386 176.991 486.833C177.973 487.277 178.744 488.148 179.303 489.444L179.48 489.876ZM176.975 489.194C176.305 488.335 175.485 488.114 174.517 488.531C174.296 488.626 174.104 488.75 173.94 488.904C173.774 489.052 173.639 489.225 173.533 489.424C173.43 489.615 173.361 489.824 173.324 490.05C173.288 490.276 173.289 490.515 173.327 490.767L176.975 489.194ZM185.39 482.16L187.214 481.374L190.602 489.235L188.778 490.021L188.423 489.198C187.977 490.22 187.323 490.916 186.462 491.287C185.375 491.756 184.307 491.75 183.259 491.271C182.208 490.773 181.424 489.924 180.907 488.724C180.399 487.546 180.328 486.412 180.695 485.323C181.061 484.233 181.774 483.46 182.834 483.003C183.749 482.609 184.732 482.632 185.783 483.072L185.39 482.16ZM182.763 487.924C183.088 488.677 183.554 489.204 184.162 489.503C184.783 489.804 185.408 489.818 186.037 489.547C186.71 489.257 187.154 488.791 187.369 488.15C187.577 487.493 187.522 486.795 187.204 486.058C186.886 485.321 186.417 484.802 185.796 484.502C185.18 484.212 184.541 484.21 183.879 484.495C183.255 484.764 182.835 485.226 182.62 485.881C182.412 486.538 182.46 487.219 182.763 487.924ZM189.506 480.386L191.322 479.603L191.625 480.305C191.807 479.811 192 479.444 192.203 479.204C192.409 478.956 192.692 478.754 193.052 478.599C193.531 478.392 194.099 478.333 194.755 478.42L194.64 480.441C194.189 480.342 193.8 480.363 193.472 480.504C192.481 480.931 192.309 481.892 192.954 483.388L194.71 487.464L192.894 488.247L189.506 480.386ZM201.807 475.485L202.847 477.899C202.215 477.571 201.694 477.384 201.285 477.337C200.879 477.283 200.457 477.35 200.022 477.537C199.338 477.832 198.874 478.316 198.628 478.99C198.383 479.664 198.415 480.361 198.726 481.082C199.044 481.819 199.523 482.331 200.163 482.616C200.808 482.9 201.472 482.894 202.156 482.599C202.591 482.411 202.936 482.151 203.188 481.819C203.432 481.497 203.658 480.979 203.867 480.263L204.9 482.661C204.328 483.36 203.673 483.869 202.936 484.187C201.72 484.711 200.533 484.757 199.377 484.324C198.218 483.885 197.386 483.079 196.88 481.906C196.374 480.733 196.362 479.565 196.843 478.4C197.324 477.236 198.167 476.394 199.372 475.875C200.147 475.541 200.959 475.411 201.807 475.485ZM201.369 468.429L203.185 467.646L205.954 474.071C206.35 473.212 206.937 472.614 207.717 472.277C208.605 471.895 209.44 471.876 210.221 472.223C210.888 472.528 211.459 473.23 211.932 474.327L214.009 479.146L212.193 479.929L210.189 475.28C209.917 474.65 209.608 474.244 209.262 474.062C208.918 473.872 208.499 473.883 208.004 474.097C207.369 474.37 207.007 474.759 206.918 475.263C206.837 475.771 207.005 476.509 207.422 477.477L209.061 481.279L207.245 482.061L201.369 468.429ZM223.825 465.593L225.649 464.807L229.037 472.668L227.213 473.454L226.858 472.631C226.412 473.653 225.758 474.349 224.897 474.721C223.81 475.189 222.743 475.184 221.694 474.704C220.643 474.206 219.859 473.357 219.342 472.157C218.834 470.979 218.763 469.845 219.13 468.756C219.496 467.666 220.209 466.893 221.269 466.436C222.184 466.042 223.167 466.065 224.218 466.505L223.825 465.593ZM221.198 471.357C221.523 472.111 221.989 472.637 222.597 472.937C223.218 473.237 223.843 473.251 224.472 472.98C225.145 472.69 225.589 472.224 225.804 471.583C226.012 470.926 225.957 470.228 225.639 469.491C225.321 468.754 224.852 468.235 224.231 467.935C223.615 467.645 222.976 467.643 222.314 467.929C221.69 468.198 221.27 468.659 221.055 469.314C220.847 469.971 220.895 470.652 221.198 471.357ZM227.941 463.819L229.765 463.032L230.078 463.759C230.442 462.856 231.022 462.232 231.818 461.889C232.733 461.495 233.57 461.475 234.329 461.831C234.982 462.13 235.547 462.834 236.024 463.943L238.101 468.761L236.277 469.547L234.385 465.157C234.051 464.382 233.712 463.893 233.369 463.69C233.03 463.479 232.583 463.493 232.029 463.732C231.426 463.992 231.084 464.375 231.003 464.882C230.924 465.382 231.096 466.121 231.519 467.1L233.154 470.894L231.33 471.68L227.941 463.819ZM240.321 451.64L242.145 450.853L248.021 464.486L246.197 465.272L245.842 464.449C245.428 465.457 244.769 466.155 243.865 466.545C242.789 467.009 241.726 467.001 240.677 466.522C239.627 466.024 238.843 465.175 238.326 463.975C237.82 462.802 237.75 461.671 238.117 460.581C238.475 459.489 239.184 458.714 240.244 458.257C241.165 457.861 242.15 457.882 243.201 458.323L240.321 451.64ZM240.182 463.175C240.507 463.928 240.973 464.454 241.581 464.754C242.201 465.054 242.826 465.069 243.456 464.797C244.129 464.508 244.572 464.042 244.787 463.401C244.995 462.743 244.94 462.046 244.622 461.309C244.305 460.571 243.835 460.053 243.215 459.752C242.599 459.463 241.96 459.461 241.298 459.746C240.674 460.015 240.254 460.477 240.038 461.131C239.83 461.789 239.878 462.47 240.182 463.175ZM252.27 447.877L257.642 460.339L255.761 461.149L250.39 448.687L252.27 447.877ZM256.9 451.336L258.725 450.55L259.038 451.276C259.401 450.373 259.981 449.75 260.778 449.407C261.692 449.012 262.529 448.993 263.289 449.348C263.941 449.648 264.506 450.352 264.984 451.46L267.061 456.279L265.237 457.065L263.344 452.674C263.01 451.899 262.672 451.41 262.329 451.207C261.989 450.996 261.542 451.01 260.988 451.249C260.385 451.509 260.043 451.892 259.962 452.4C259.884 452.899 260.056 453.639 260.478 454.618L262.113 458.411L260.289 459.198L256.9 451.336ZM268.576 448.314L271.234 454.48L269.418 455.263L266.76 449.096L265.985 449.43L265.254 447.735L266.029 447.401L264.787 444.52L266.603 443.737L267.845 446.619L269.258 446.01L269.988 447.705L268.576 448.314ZM279.675 446.688L274.042 449.116C274.369 449.741 274.8 450.164 275.336 450.386C275.869 450.603 276.427 450.586 277.008 450.335C277.46 450.141 277.788 449.872 277.991 449.529C278.188 449.188 278.348 448.648 278.469 447.906L280.371 448.101C280.308 448.607 280.207 449.062 280.069 449.466C279.928 449.865 279.748 450.223 279.528 450.541C279.305 450.854 279.038 451.129 278.725 451.366C278.412 451.603 278.052 451.809 277.643 451.985C276.47 452.491 275.366 452.52 274.331 452.073C273.293 451.621 272.505 450.767 271.964 449.514C271.428 448.271 271.339 447.116 271.696 446.05C272.063 444.992 272.82 444.216 273.966 443.722C275.123 443.223 276.196 443.198 277.187 443.645C278.169 444.089 278.94 444.96 279.499 446.256L279.675 446.688ZM277.171 446.006C276.501 445.147 275.681 444.926 274.713 445.343C274.492 445.438 274.3 445.562 274.136 445.716C273.97 445.864 273.835 446.037 273.729 446.236C273.626 446.427 273.557 446.636 273.52 446.862C273.484 447.088 273.485 447.327 273.523 447.579L277.171 446.006ZM279.79 441.47L281.606 440.687L281.909 441.389C282.092 440.896 282.285 440.529 282.487 440.288C282.693 440.04 282.976 439.838 283.337 439.683C283.816 439.476 284.383 439.417 285.04 439.504L284.925 441.525C284.474 441.426 284.084 441.447 283.756 441.589C282.766 442.015 282.593 442.977 283.238 444.472L284.995 448.548L283.179 449.331L279.79 441.47ZM294.898 440.126L289.264 442.555C289.591 443.179 290.022 443.603 290.558 443.825C291.092 444.041 291.649 444.024 292.23 443.774C292.682 443.579 293.01 443.31 293.213 442.968C293.411 442.627 293.57 442.086 293.691 441.345L295.593 441.54C295.53 442.045 295.43 442.5 295.291 442.904C295.151 443.303 294.97 443.662 294.75 443.98C294.528 444.293 294.26 444.568 293.947 444.804C293.635 445.041 293.274 445.248 292.865 445.424C291.692 445.93 290.588 445.959 289.553 445.512C288.516 445.059 287.727 444.206 287.186 442.952C286.651 441.709 286.561 440.555 286.918 439.488C287.286 438.431 288.042 437.655 289.188 437.161C290.345 436.662 291.419 436.636 292.409 437.084C293.392 437.528 294.163 438.398 294.721 439.695L294.898 440.126ZM292.393 439.445C291.723 438.585 290.903 438.364 289.935 438.782C289.714 438.877 289.522 439.001 289.359 439.154C289.193 439.303 289.057 439.476 288.951 439.675C288.848 439.866 288.779 440.074 288.742 440.301C288.706 440.527 288.707 440.766 288.745 441.017L292.393 439.445ZM300.159 434.279L299.002 435.725C298.556 435.343 298.159 435.227 297.809 435.378C297.642 435.45 297.524 435.568 297.454 435.732C297.382 435.891 297.383 436.056 297.457 436.228C297.587 436.53 298.066 436.677 298.893 436.672C300.035 436.671 300.848 436.774 301.332 436.98C301.816 437.186 302.186 437.584 302.441 438.176C302.768 438.935 302.762 439.691 302.423 440.443C302.088 441.161 301.536 441.687 300.767 442.018C299.448 442.586 298.238 442.346 297.134 441.296L298.375 439.91C298.752 440.194 299.019 440.363 299.177 440.416C299.485 440.526 299.793 440.514 300.1 440.382C300.713 440.118 300.899 439.706 300.658 439.146C300.519 438.823 300.152 438.624 299.558 438.548C299.336 438.536 299.114 438.526 298.894 438.518C298.674 438.511 298.45 438.502 298.223 438.492C297.584 438.461 297.101 438.363 296.775 438.197C296.359 437.987 296.04 437.624 295.817 437.108C295.523 436.424 295.513 435.758 295.789 435.11C296.075 434.457 296.56 433.983 297.243 433.689C298.25 433.255 299.221 433.452 300.159 434.279ZM304.331 432.902L306.989 439.068L305.173 439.851L302.515 433.685L301.74 434.019L301.01 432.324L301.784 431.99L300.542 429.108L302.358 428.325L303.6 431.207L305.013 430.598L305.744 432.293L304.331 432.902ZM311.593 422.306L316.965 434.768L315.084 435.579L309.713 423.117L311.593 422.306ZM316.224 425.766L318.048 424.979L318.361 425.706C318.725 424.803 319.305 424.179 320.101 423.836C321.016 423.442 321.853 423.422 322.612 423.778C323.264 424.077 323.829 424.781 324.307 425.89L326.384 430.708L324.56 431.494L322.667 427.104C322.333 426.329 321.995 425.84 321.652 425.637C321.313 425.426 320.866 425.44 320.311 425.679C319.709 425.939 319.367 426.322 319.285 426.829C319.207 427.329 319.379 428.068 319.801 429.047L321.436 432.841L319.612 433.627L316.224 425.766ZM340.148 421.186L334.813 423.486L334.73 427.111L332.704 427.984L333.161 412.081L344.819 422.762L342.761 423.649L340.148 421.186ZM338.62 419.749L334.945 416.308L334.834 421.381L338.62 419.749ZM342.894 408.815L348.265 421.277L346.385 422.087L341.013 409.625L342.894 408.815Z" fill="#EDEDED"/>
</svg>
